<svg version="1.1" viewBox="0.0 0.0 592.1469816272966 277.7979002624672" fill="none" stroke="none" stroke-linecap="square" stroke-miterlimit="10" xmlns:xlink="http://www.w3.org/1999/xlink" xmlns="http://www.w3.org/2000/svg"><clipPath id="p.0"><path d="m0 0l592.147 0l0 277.7979l-592.147 0l0 -277.7979z" clip-rule="nonzero"/></clipPath><g clip-path="url(#p.0)"><path fill="#000000" fill-opacity="0.0" d="m0 0l592.147 0l0 277.7979l-592.147 0z" fill-rule="evenodd"/><path fill="#ffffff" d="m0 -0.005249344l592.1575 0l0 277.7953l-592.1575 0z" fill-rule="evenodd"/><path fill="#000000" fill-opacity="0.0" d="m464.65753 49.524933l121.35437 0" fill-rule="evenodd"/><path stroke="#000000" stroke-width="1.0" stroke-linejoin="round" stroke-linecap="butt" d="m464.65756 49.524933l115.35434 0" fill-rule="evenodd"/><path fill="#000000" stroke="#000000" stroke-width="1.0" stroke-linecap="butt" d="m580.0119 51.176666l4.538086 -1.6517334l-4.538086 -1.6517296z" fill-rule="evenodd"/><path fill="#efefef" d="m126.6063 15.606391l0 0c0 -4.293666 3.4807053 -7.77437 7.774376 -7.77437l323.4119 0c2.0618896 0 4.0393066 0.8190832 5.497284 2.2770605c1.4579773 1.4579773 2.277069 3.4354181 2.277069 5.4973097l0 247.63235c0 4.2936707 -3.480713 7.7743835 -7.774353 7.7743835l-323.4119 0c-4.2936707 0 -7.774376 -3.480713 -7.774376 -7.7743835z" fill-rule="evenodd"/><path stroke="#000000" stroke-width="1.0" stroke-linejoin="round" stroke-linecap="butt" d="m126.6063 15.606391l0 0c0 -4.293666 3.4807053 -7.77437 7.774376 -7.77437l323.4119 0c2.0618896 0 4.0393066 0.8190832 5.497284 2.2770605c1.4579773 1.4579773 2.277069 3.4354181 2.277069 5.4973097l0 247.63235c0 4.2936707 -3.480713 7.7743835 -7.774353 7.7743835l-323.4119 0c-4.2936707 0 -7.774376 -3.480713 -7.774376 -7.7743835z" fill-rule="evenodd"/><path fill="#ffffff" d="m229.63422 117.108925l26.929138 0l0 36.28347l-26.929138 0z" fill-rule="evenodd"/><path stroke="#000000" stroke-width="1.0" stroke-linejoin="round" stroke-linecap="butt" d="m229.63422 117.108925l26.929138 0l0 36.28347l-26.929138 0z" fill-rule="evenodd"/><path fill="#ffffff" d="m235.00182 134.69766l-5.165344 5.1653595l0 -10.330719z" fill-rule="evenodd"/><path stroke="#000000" stroke-width="1.0" stroke-linejoin="round" stroke-linecap="butt" d="m235.00182 134.69766l-5.165344 5.1653595l0 -10.330719z" fill-rule="evenodd"/><path fill="#ffffff" d="m240.927 128.40163l26.929138 0l0 36.283478l-26.929138 0z" fill-rule="evenodd"/><path stroke="#000000" stroke-width="1.0" stroke-linejoin="round" stroke-linecap="butt" d="m240.927 128.40163l26.929138 0l0 36.283478l-26.929138 0z" fill-rule="evenodd"/><path fill="#ffffff" d="m246.29462 145.99037l-5.1653595 5.1653595l0 -10.330719z" fill-rule="evenodd"/><path stroke="#000000" stroke-width="1.0" stroke-linejoin="round" stroke-linecap="butt" d="m246.29462 145.99037l-5.1653595 5.1653595l0 -10.330719z" fill-rule="evenodd"/><path fill="#ffffff" d="m252.2198 139.69434l26.929123 0l0 36.283478l-26.929123 0z" fill-rule="evenodd"/><path stroke="#000000" stroke-width="1.0" stroke-linejoin="round" stroke-linecap="butt" d="m252.2198 139.69434l26.929123 0l0 36.283478l-26.929123 0z" fill-rule="evenodd"/><path fill="#ffffff" d="m257.5874 157.28308l-5.165344 5.1653595l0 -10.330719z" fill-rule="evenodd"/><path stroke="#000000" stroke-width="1.0" stroke-linejoin="round" stroke-linecap="butt" d="m257.5874 157.28308l-5.165344 5.1653595l0 -10.330719z" fill-rule="evenodd"/><path fill="#ffffff" d="m263.5126 150.98705l26.929138 0l0 36.283478l-26.929138 0z" fill-rule="evenodd"/><path stroke="#000000" stroke-width="1.0" stroke-linejoin="round" stroke-linecap="butt" d="m263.5126 150.98705l26.929138 0l0 36.283478l-26.929138 0z" fill-rule="evenodd"/><path fill="#ffffff" d="m268.88022 168.57579l-5.1653748 5.1653595l0 -10.330719z" fill-rule="evenodd"/><path stroke="#000000" stroke-width="1.0" stroke-linejoin="round" stroke-linecap="butt" d="m268.88022 168.57579l-5.1653748 5.1653595l0 -10.330719z" fill-rule="evenodd"/><path fill="#ffffff" d="m383.43558 109.73937l25.606323 0l0 34.551186l-25.606323 0z" fill-rule="evenodd"/><path stroke="#000000" stroke-width="1.0" stroke-linejoin="round" stroke-linecap="butt" stroke-dasharray="8.0,3.0" d="m383.43558 109.73937l25.606323 0l0 34.551186l-25.606323 0z" fill-rule="evenodd"/><path fill="#ffffff" d="m388.5414 126.47627l-4.913391 4.913391l0 -9.826775z" fill-rule="evenodd"/><path stroke="#000000" stroke-width="1.0" stroke-linejoin="round" stroke-linecap="butt" d="m388.5414 126.47627l-4.913391 4.913391l0 -9.826775z" fill-rule="evenodd"/><path fill="#ffffff" d="m394.18048 120.48427l25.606293 0l0 34.551178l-25.606293 0z" fill-rule="evenodd"/><path stroke="#000000" stroke-width="1.0" stroke-linejoin="round" stroke-linecap="butt" stroke-dasharray="8.0,3.0" d="m394.18048 120.48427l25.606293 0l0 34.551178l-25.606293 0z" fill-rule="evenodd"/><path fill="#ffffff" d="m399.28632 137.22118l-4.913391 4.913391l0 -9.826782z" fill-rule="evenodd"/><path stroke="#000000" stroke-width="1.0" stroke-linejoin="round" stroke-linecap="butt" d="m399.28632 137.22118l-4.913391 4.913391l0 -9.826782z" fill-rule="evenodd"/><path fill="#ffffff" d="m404.92538 131.22917l25.606293 0l0 34.551178l-25.606293 0z" fill-rule="evenodd"/><path stroke="#000000" stroke-width="1.0" stroke-linejoin="round" stroke-linecap="butt" d="m404.92538 131.22917l25.606293 0l0 34.551178l-25.606293 0z" fill-rule="evenodd"/><path fill="#ffffff" d="m410.0312 147.96608l-4.913391 4.913376l0 -9.826767z" fill-rule="evenodd"/><path stroke="#000000" stroke-width="1.0" stroke-linejoin="round" stroke-linecap="butt" stroke-dasharray="8.0,3.0" d="m410.0312 147.96608l-4.913391 4.913376l0 -9.826767z" fill-rule="evenodd"/><path fill="#000000" fill-opacity="0.0" d="m412.58936 143.7649l22.897644 0l0 42.015747l-22.897644 0z" fill-rule="evenodd"/><path fill="#000000" d="m423.21436 170.68489l0 -8.40625l-1.453125 0l0 -1.265625l1.453125 0l0 -1.03125q0 -0.96875 0.171875 -1.453125q0.234375 -0.640625 0.828125 -1.03125q0.59375 -0.390625 1.671875 -0.390625q0.6875 0 1.53125 0.15625l-0.25 1.4375q-0.5 -0.09375 -0.953125 -0.09375q-0.75 0 -1.0625 0.328125q-0.3125 0.3125 -0.3125 1.1875l0 0.890625l1.890625 0l0 1.265625l-1.890625 0l0 8.40625l-1.625 0z" fill-rule="nonzero"/><path fill="#ffffff" d="m415.67026 141.97408l25.606293 0l0 34.551178l-25.606293 0z" fill-rule="evenodd"/><path stroke="#000000" stroke-width="1.0" stroke-linejoin="round" stroke-linecap="butt" stroke-dasharray="8.0,3.0" d="m415.67026 141.97408l25.606293 0l0 34.551178l-25.606293 0z" fill-rule="evenodd"/><path fill="#ffffff" d="m420.7761 158.71097l-4.913391 4.913391l0 -9.826767z" fill-rule="evenodd"/><path stroke="#000000" stroke-width="1.0" stroke-linejoin="round" stroke-linecap="butt" d="m420.7761 158.71097l-4.913391 4.913391l0 -9.826767z" fill-rule="evenodd"/><path fill="#000000" fill-opacity="0.0" d="m223.73958 158.70448l29.480316 29.480316" fill-rule="evenodd"/><path stroke="#000000" stroke-width="1.0" stroke-linejoin="round" stroke-linecap="butt" d="m227.98222 162.94711l20.99504 20.99504" fill-rule="evenodd"/><path fill="#000000" stroke="#000000" stroke-width="1.0" stroke-linecap="butt" d="m229.15018 161.77917l-4.376877 -2.0409698l2.0409698 4.3768616z" fill-rule="evenodd"/><path fill="#000000" stroke="#000000" stroke-width="1.0" stroke-linecap="butt" d="m247.80931 185.1101l4.3768616 2.0409698l-2.0409698 -4.376877z" fill-rule="evenodd"/><path fill="#000000" fill-opacity="0.0" d="m181.48819 164.68636l56.503937 0l0 27.46457l-56.503937 0z" fill-rule="evenodd"/><path fill="#000000" d="m194.53636 179.58635q-0.5 0.578125 -1.046875 0.578125q-0.5 0 -0.828125 -0.359375q-0.328125 -0.359375 -0.328125 -1.046875q0 -0.640625 0.265625 -1.15625q0.265625 -0.53125 0.640625 -0.78125q0.390625 -0.265625 0.78125 -0.265625q0.640625 0 0.96875 0.625l0.390625 -1.859375l0.59375 0l-1.0 4.765625l-0.546875 0l0.109375 -0.5zm-1.609375 -0.953125q0 0.375 0.0625 0.578125q0.078125 0.203125 0.25 0.34375q0.171875 0.140625 0.421875 0.140625q0.390625 0 0.71875 -0.421875q0.4375 -0.546875 0.4375 -1.359375q0 -0.40625 -0.21875 -0.640625q-0.21875 -0.234375 -0.53125 -0.234375q-0.21875 0 -0.390625 0.09375q-0.171875 0.09375 -0.34375 0.328125q-0.171875 0.21875 -0.296875 0.578125q-0.109375 0.34375 -0.109375 0.59375zm5.311264 1.03125q-0.296875 0.25 -0.59375 0.375q-0.28125 0.125 -0.59375 0.125q-0.484375 0 -0.78125 -0.28125q-0.28125 -0.28125 -0.28125 -0.71875q0 -0.296875 0.125 -0.515625q0.140625 -0.21875 0.34375 -0.34375q0.21875 -0.140625 0.546875 -0.203125q0.1875 -0.046875 0.734375 -0.0625q0.5625 -0.03125 0.8125 -0.125q0.0625 -0.234375 0.0625 -0.390625q0 -0.203125 -0.15625 -0.328125q-0.203125 -0.15625 -0.59375 -0.15625q-0.375 0 -0.609375 0.171875q-0.234375 0.15625 -0.34375 0.453125l-0.59375 -0.046875q0.1875 -0.515625 0.578125 -0.78125q0.40625 -0.28125 1.0 -0.28125q0.640625 0 1.015625 0.3125q0.28125 0.21875 0.28125 0.59375q0 0.265625 -0.078125 0.625l-0.1875 0.859375q-0.09375 0.421875 -0.09375 0.671875q0 0.15625 0.078125 0.46875l-0.609375 0q-0.046875 -0.171875 -0.0625 -0.421875zm0.21875 -1.328125q-0.125 0.046875 -0.265625 0.078125q-0.140625 0.03125 -0.46875 0.046875q-0.515625 0.046875 -0.734375 0.125q-0.203125 0.0625 -0.3125 0.21875q-0.109375 0.15625 -0.109375 0.34375q0 0.234375 0.171875 0.40625q0.171875 0.15625 0.484375 0.15625q0.296875 0 0.5625 -0.15625q0.265625 -0.15625 0.421875 -0.421875q0.15625 -0.28125 0.25 -0.796875zm2.530014 1.265625l-0.09375 0.484375q-0.21875 0.0625 -0.40625 0.0625q-0.359375 0 -0.5625 -0.171875q-0.15625 -0.140625 -0.15625 -0.359375q0 -0.109375 0.078125 -0.515625l0.421875 -2.015625l-0.46875 0l0.09375 -0.453125l0.46875 0l0.1875 -0.84375l0.671875 -0.40625l-0.265625 1.25l0.578125 0l-0.09375 0.453125l-0.578125 0l-0.40625 1.90625q-0.078125 0.375 -0.078125 0.4375q0 0.109375 0.0625 0.171875q0.0625 0.046875 0.203125 0.046875q0.1875 0 0.34375 -0.046875zm2.8024445 0.0625q-0.296875 0.25 -0.59375 0.375q-0.28125 0.125 -0.59375 0.125q-0.484375 0 -0.78125 -0.28125q-0.28125 -0.28125 -0.28125 -0.71875q0 -0.296875 0.125 -0.515625q0.140625 -0.21875 0.34375 -0.34375q0.21875 -0.140625 0.546875 -0.203125q0.1875 -0.046875 0.734375 -0.0625q0.5625 -0.03125 0.8125 -0.125q0.0625 -0.234375 0.0625 -0.390625q0 -0.203125 -0.15625 -0.328125q-0.203125 -0.15625 -0.59375 -0.15625q-0.375 0 -0.609375 0.171875q-0.234375 0.15625 -0.34375 0.453125l-0.59375 -0.046875q0.1875 -0.515625 0.578125 -0.78125q0.40625 -0.28125 1.0 -0.28125q0.640625 0 1.015625 0.3125q0.28125 0.21875 0.28125 0.59375q0 0.265625 -0.078125 0.625l-0.1875 0.859375q-0.09375 0.421875 -0.09375 0.671875q0 0.15625 0.078125 0.46875l-0.609375 0q-0.046875 -0.171875 -0.0625 -0.421875zm0.21875 -1.328125q-0.125 0.046875 -0.265625 0.078125q-0.140625 0.03125 -0.46875 0.046875q-0.515625 0.046875 -0.734375 0.125q-0.203125 0.0625 -0.3125 0.21875q-0.109375 0.15625 -0.109375 0.34375q0 0.234375 0.171875 0.40625q0.171875 0.15625 0.484375 0.15625q0.296875 0 0.5625 -0.15625q0.265625 -0.15625 0.421875 -0.421875q0.15625 -0.28125 0.25 -0.796875zm3.0980835 0.3125l0.125 -0.578125l1.78125 0l-0.109375 0.578125l-1.796875 0zm5.3471527 0.953125l-0.09375 0.484375q-0.21875 0.0625 -0.40625 0.0625q-0.359375 0 -0.5625 -0.171875q-0.15625 -0.140625 -0.15625 -0.359375q0 -0.109375 0.078125 -0.515625l0.421875 -2.015625l-0.46875 0l0.09375 -0.453125l0.46875 0l0.1875 -0.84375l0.671875 -0.40625l-0.265625 1.25l0.578125 0l-0.09375 0.453125l-0.578125 0l-0.40625 1.90625q-0.078125 0.375 -0.078125 0.4375q0 0.109375 0.0625 0.171875q0.0625 0.046875 0.203125 0.046875q0.1875 0 0.34375 -0.046875zm0.25556946 1.8125l0.03125 -0.546875q0.1875 0.046875 0.359375 0.046875q0.171875 0 0.28125 -0.078125q0.15625 -0.109375 0.3125 -0.40625l0.203125 -0.328125l-0.578125 -3.46875l0.578125 0l0.25 1.75q0.078125 0.515625 0.140625 1.03125l1.546875 -2.78125l0.609375 0l-2.203125 3.90625q-0.3125 0.578125 -0.5625 0.765625q-0.25 0.1875 -0.5625 0.1875q-0.21875 0 -0.40625 -0.078125zm3.265625 0l0.984375 -4.78125l0.546875 0l-0.09375 0.484375q0.296875 -0.3125 0.53125 -0.4375q0.25 -0.125 0.515625 -0.125q0.484375 0 0.8125 0.359375q0.328125 0.359375 0.328125 1.03125q0 0.53125 -0.1875 0.984375q-0.171875 0.4375 -0.4375 0.71875q-0.25 0.265625 -0.515625 0.390625q-0.265625 0.125 -0.546875 0.125q-0.625 0 -0.96875 -0.625l-0.390625 1.875l-0.578125 0zm1.15625 -2.734375q0 0.375 0.0625 0.53125q0.078125 0.21875 0.265625 0.34375q0.1875 0.125 0.421875 0.125q0.515625 0 0.828125 -0.5625q0.3125 -0.578125 0.3125 -1.171875q0 -0.4375 -0.21875 -0.671875q-0.203125 -0.25 -0.515625 -0.25q-0.234375 0 -0.421875 0.125q-0.1875 0.125 -0.359375 0.359375q-0.15625 0.234375 -0.265625 0.578125q-0.109375 0.328125 -0.109375 0.59375zm5.358139 0.234375l0.578125 0.0625q-0.125 0.421875 -0.578125 0.8125q-0.4375 0.375 -1.046875 0.375q-0.390625 0 -0.71875 -0.171875q-0.3125 -0.1875 -0.484375 -0.515625q-0.15625 -0.34375 -0.15625 -0.78125q0 -0.5625 0.265625 -1.09375q0.265625 -0.53125 0.671875 -0.78125q0.421875 -0.265625 0.90625 -0.265625q0.609375 0 0.984375 0.390625q0.375 0.375 0.375 1.046875q0 0.25 -0.046875 0.515625l-2.546875 0q-0.015625 0.09375 -0.015625 0.1875q0 0.484375 0.21875 0.734375q0.234375 0.25 0.546875 0.25q0.3125 0 0.59375 -0.1875q0.296875 -0.203125 0.453125 -0.578125zm-1.703125 -0.859375l1.9375 0q0 -0.09375 0 -0.125q0 -0.4375 -0.21875 -0.671875q-0.21875 -0.25 -0.5625 -0.25q-0.390625 0 -0.703125 0.265625q-0.296875 0.265625 -0.453125 0.78125zm2.233139 3.359375l0 -0.421875l3.875 0l0 0.421875l-3.875 0zm5.717514 -1.8125l-0.09375 0.484375q-0.21875 0.0625 -0.40625 0.0625q-0.359375 0 -0.5625 -0.171875q-0.15625 -0.140625 -0.15625 -0.359375q0 -0.109375 0.078125 -0.515625l0.421875 -2.015625l-0.46875 0l0.09375 -0.453125l0.46875 0l0.1875 -0.84375l0.671875 -0.40625l-0.265625 1.25l0.578125 0l-0.09375 0.453125l-0.578125 0l-0.40625 1.90625q-0.078125 0.375 -0.078125 0.4375q0 0.109375 0.0625 0.171875q0.0625 0.046875 0.203125 0.046875q0.1875 0 0.34375 -0.046875z" fill-rule="nonzero"/><path fill="#000000" fill-opacity="0.0" d="m380.3228 150.49103l28.062988 28.062988" fill-rule="evenodd"/><path stroke="#000000" stroke-width="1.0" stroke-linejoin="round" stroke-linecap="butt" d="m384.56546 154.73366l19.577667 19.577713" fill-rule="evenodd"/><path fill="#000000" stroke="#000000" stroke-width="1.0" stroke-linecap="butt" d="m385.7334 153.5657l-4.376892 -2.0409698l2.040985 4.376877z" fill-rule="evenodd"/><path fill="#000000" stroke="#000000" stroke-width="1.0" stroke-linecap="butt" d="m402.9752 175.47932l4.3768616 2.0409698l-2.0409546 -4.376877z" fill-rule="evenodd"/><path fill="#000000" fill-opacity="0.0" d="m339.257 156.5853l56.503937 0l0 27.46457l-56.503937 0z" fill-rule="evenodd"/><path fill="#000000" d="m352.30518 171.4853q-0.5 0.578125 -1.046875 0.578125q-0.5 0 -0.828125 -0.359375q-0.328125 -0.359375 -0.328125 -1.046875q0 -0.640625 0.265625 -1.15625q0.265625 -0.53125 0.640625 -0.78125q0.390625 -0.265625 0.78125 -0.265625q0.640625 0 0.96875 0.625l0.390625 -1.859375l0.59375 0l-1.0 4.765625l-0.546875 0l0.109375 -0.5zm-1.609375 -0.953125q0 0.375 0.0625 0.578125q0.078125 0.203125 0.25 0.34375q0.171875 0.140625 0.421875 0.140625q0.390625 0 0.71875 -0.421875q0.4375 -0.546875 0.4375 -1.359375q0 -0.40625 -0.21875 -0.640625q-0.21875 -0.234375 -0.53125 -0.234375q-0.21875 0 -0.390625 0.09375q-0.171875 0.09375 -0.34375 0.328125q-0.171875 0.21875 -0.296875 0.578125q-0.109375 0.34375 -0.109375 0.59375zm5.311249 1.03125q-0.296875 0.25 -0.59375 0.375q-0.28125 0.125 -0.59375 0.125q-0.484375 0 -0.78125 -0.28125q-0.28125 -0.28125 -0.28125 -0.71875q0 -0.296875 0.125 -0.515625q0.140625 -0.21875 0.34375 -0.34375q0.21875 -0.140625 0.546875 -0.203125q0.1875 -0.046875 0.734375 -0.0625q0.5625 -0.03125 0.8125 -0.125q0.0625 -0.234375 0.0625 -0.390625q0 -0.203125 -0.15625 -0.328125q-0.203125 -0.15625 -0.59375 -0.15625q-0.375 0 -0.609375 0.171875q-0.234375 0.15625 -0.34375 0.453125l-0.59375 -0.046875q0.1875 -0.515625 0.578125 -0.78125q0.40625 -0.28125 1.0 -0.28125q0.640625 0 1.015625 0.3125q0.28125 0.21875 0.28125 0.59375q0 0.265625 -0.078125 0.625l-0.1875 0.859375q-0.09375 0.421875 -0.09375 0.671875q0 0.15625 0.078125 0.46875l-0.609375 0q-0.046875 -0.171875 -0.0625 -0.421875zm0.21875 -1.328125q-0.125 0.046875 -0.265625 0.078125q-0.140625 0.03125 -0.46875 0.046875q-0.515625 0.046875 -0.734375 0.125q-0.203125 0.0625 -0.3125 0.21875q-0.109375 0.15625 -0.109375 0.34375q0 0.234375 0.171875 0.40625q0.171875 0.15625 0.484375 0.15625q0.296875 0 0.5625 -0.15625q0.265625 -0.15625 0.421875 -0.421875q0.15625 -0.28125 0.25 -0.796875zm2.5300293 1.265625l-0.09375 0.484375q-0.21875 0.0625 -0.40625 0.0625q-0.359375 0 -0.5625 -0.171875q-0.15625 -0.140625 -0.15625 -0.359375q0 -0.109375 0.078125 -0.515625l0.421875 -2.015625l-0.46875 0l0.09375 -0.453125l0.46875 0l0.1875 -0.84375l0.671875 -0.40625l-0.265625 1.25l0.578125 0l-0.09375 0.453125l-0.578125 0l-0.40625 1.90625q-0.078125 0.375 -0.078125 0.4375q0 0.109375 0.0625 0.171875q0.0625 0.046875 0.203125 0.046875q0.1875 0 0.34375 -0.046875zm2.8024292 0.0625q-0.296875 0.25 -0.59375 0.375q-0.28125 0.125 -0.59375 0.125q-0.484375 0 -0.78125 -0.28125q-0.28125 -0.28125 -0.28125 -0.71875q0 -0.296875 0.125 -0.515625q0.140625 -0.21875 0.34375 -0.34375q0.21875 -0.140625 0.546875 -0.203125q0.1875 -0.046875 0.734375 -0.0625q0.5625 -0.03125 0.8125 -0.125q0.0625 -0.234375 0.0625 -0.390625q0 -0.203125 -0.15625 -0.328125q-0.203125 -0.15625 -0.59375 -0.15625q-0.375 0 -0.609375 0.171875q-0.234375 0.15625 -0.34375 0.453125l-0.59375 -0.046875q0.1875 -0.515625 0.578125 -0.78125q0.40625 -0.28125 1.0 -0.28125q0.640625 0 1.015625 0.3125q0.28125 0.21875 0.28125 0.59375q0 0.265625 -0.078125 0.625l-0.1875 0.859375q-0.09375 0.421875 -0.09375 0.671875q0 0.15625 0.078125 0.46875l-0.609375 0q-0.046875 -0.171875 -0.0625 -0.421875zm0.21875 -1.328125q-0.125 0.046875 -0.265625 0.078125q-0.140625 0.03125 -0.46875 0.046875q-0.515625 0.046875 -0.734375 0.125q-0.203125 0.0625 -0.3125 0.21875q-0.109375 0.15625 -0.109375 0.34375q0 0.234375 0.171875 0.40625q0.171875 0.15625 0.484375 0.15625q0.296875 0 0.5625 -0.15625q0.265625 -0.15625 0.421875 -0.421875q0.15625 -0.28125 0.25 -0.796875zm3.0980835 0.3125l0.125 -0.578125l1.78125 0l-0.109375 0.578125l-1.796875 0zm5.347168 0.953125l-0.09375 0.484375q-0.21875 0.0625 -0.40625 0.0625q-0.359375 0 -0.5625 -0.171875q-0.15625 -0.140625 -0.15625 -0.359375q0 -0.109375 0.078125 -0.515625l0.421875 -2.015625l-0.46875 0l0.09375 -0.453125l0.46875 0l0.1875 -0.84375l0.671875 -0.40625l-0.265625 1.25l0.578125 0l-0.09375 0.453125l-0.578125 0l-0.40625 1.90625q-0.078125 0.375 -0.078125 0.4375q0 0.109375 0.0625 0.171875q0.0625 0.046875 0.203125 0.046875q0.1875 0 0.34375 -0.046875zm0.2555542 1.8125l0.03125 -0.546875q0.1875 0.046875 0.359375 0.046875q0.171875 0 0.28125 -0.078125q0.15625 -0.109375 0.3125 -0.40625l0.203125 -0.328125l-0.578125 -3.46875l0.578125 0l0.25 1.75q0.078125 0.515625 0.140625 1.03125l1.546875 -2.78125l0.609375 0l-2.203125 3.90625q-0.3125 0.578125 -0.5625 0.765625q-0.25 0.1875 -0.5625 0.1875q-0.21875 0 -0.40625 -0.078125zm3.265625 0l0.984375 -4.78125l0.546875 0l-0.09375 0.484375q0.296875 -0.3125 0.53125 -0.4375q0.25 -0.125 0.515625 -0.125q0.484375 0 0.8125 0.359375q0.328125 0.359375 0.328125 1.03125q0 0.53125 -0.1875 0.984375q-0.171875 0.4375 -0.4375 0.71875q-0.25 0.265625 -0.515625 0.390625q-0.265625 0.125 -0.546875 0.125q-0.625 0 -0.96875 -0.625l-0.390625 1.875l-0.578125 0zm1.15625 -2.734375q0 0.375 0.0625 0.53125q0.078125 0.21875 0.265625 0.34375q0.1875 0.125 0.421875 0.125q0.515625 0 0.828125 -0.5625q0.3125 -0.578125 0.3125 -1.171875q0 -0.4375 -0.21875 -0.671875q-0.203125 -0.25 -0.515625 -0.25q-0.234375 0 -0.421875 0.125q-0.1875 0.125 -0.359375 0.359375q-0.15625 0.234375 -0.265625 0.578125q-0.109375 0.328125 -0.109375 0.59375zm5.3581543 0.234375l0.578125 0.0625q-0.125 0.421875 -0.578125 0.8125q-0.4375 0.375 -1.046875 0.375q-0.390625 0 -0.71875 -0.171875q-0.3125 -0.1875 -0.484375 -0.515625q-0.15625 -0.34375 -0.15625 -0.78125q0 -0.5625 0.265625 -1.09375q0.265625 -0.53125 0.671875 -0.78125q0.421875 -0.265625 0.90625 -0.265625q0.609375 0 0.984375 0.390625q0.375 0.375 0.375 1.046875q0 0.25 -0.046875 0.515625l-2.546875 0q-0.015625 0.09375 -0.015625 0.1875q0 0.484375 0.21875 0.734375q0.234375 0.25 0.546875 0.25q0.3125 0 0.59375 -0.1875q0.296875 -0.203125 0.453125 -0.578125zm-1.703125 -0.859375l1.9375 0q0 -0.09375 0 -0.125q0 -0.4375 -0.21875 -0.671875q-0.21875 -0.25 -0.5625 -0.25q-0.390625 0 -0.703125 0.265625q-0.296875 0.265625 -0.453125 0.78125zm2.2331238 3.359375l0 -0.421875l3.875 0l0 0.421875l-3.875 0zm5.7175293 -1.8125l-0.09375 0.484375q-0.21875 0.0625 -0.40625 0.0625q-0.359375 0 -0.5625 -0.171875q-0.15625 -0.140625 -0.15625 -0.359375q0 -0.109375 0.078125 -0.515625l0.421875 -2.015625l-0.46875 0l0.09375 -0.453125l0.46875 0l0.1875 -0.84375l0.671875 -0.40625l-0.265625 1.25l0.578125 0l-0.09375 0.453125l-0.578125 0l-0.40625 1.90625q-0.078125 0.375 -0.078125 0.4375q0 0.109375 0.0625 0.171875q0.0625 0.046875 0.203125 0.046875q0.1875 0 0.34375 -0.046875z" fill-rule="nonzero"/><path fill="#000000" fill-opacity="0.0" d="m350.5171 88.038055l94.77167 0l0 25.858269l-94.77167 0z" fill-rule="evenodd"/><path fill="#000000" d="m368.76254 102.15806l0 -3.8125l1.6875 0q0.515625 0 0.78125 0.109375q0.265625 0.09375 0.421875 0.359375q0.15625 0.25 0.15625 0.578125q0 0.390625 -0.265625 0.671875q-0.265625 0.28125 -0.8125 0.359375q0.203125 0.09375 0.3125 0.1875q0.21875 0.203125 0.40625 0.515625l0.671875 1.03125l-0.640625 0l-0.5 -0.796875q-0.21875 -0.34375 -0.359375 -0.515625q-0.140625 -0.1875 -0.265625 -0.25q-0.109375 -0.078125 -0.21875 -0.109375q-0.09375 -0.015625 -0.28125 -0.015625l-0.59375 0l0 1.6875l-0.5 0zm0.5 -2.125l1.09375 0q0.34375 0 0.53125 -0.078125q0.203125 -0.078125 0.296875 -0.234375q0.109375 -0.15625 0.109375 -0.328125q0 -0.28125 -0.203125 -0.453125q-0.1875 -0.171875 -0.625 -0.171875l-1.203125 0l0 1.265625zm3.3478088 2.125l0 -3.8125l2.75 0l0 0.453125l-2.25 0l0 1.15625l2.109375 0l0 0.453125l-2.109375 0l0 1.296875l2.34375 0l0 0.453125l-2.84375 0zm5.335083 -1.5l0 -0.4375l1.609375 -0.015625l0 1.421875q-0.375 0.296875 -0.765625 0.453125q-0.390625 0.140625 -0.8125 0.140625q-0.5625 0 -1.03125 -0.234375q-0.453125 -0.25 -0.6875 -0.703125q-0.234375 -0.453125 -0.234375 -1.015625q0 -0.5625 0.234375 -1.03125q0.234375 -0.484375 0.671875 -0.71875q0.4375 -0.234375 1.0 -0.234375q0.421875 0 0.75 0.140625q0.34375 0.125 0.53125 0.375q0.1875 0.234375 0.28125 0.609375l-0.453125 0.125q-0.078125 -0.28125 -0.21875 -0.453125q-0.125 -0.171875 -0.359375 -0.265625q-0.234375 -0.109375 -0.515625 -0.109375q-0.359375 0 -0.609375 0.109375q-0.25 0.109375 -0.40625 0.28125q-0.15625 0.171875 -0.234375 0.375q-0.15625 0.359375 -0.15625 0.765625q0 0.515625 0.171875 0.859375q0.1875 0.34375 0.515625 0.515625q0.34375 0.15625 0.71875 0.15625q0.328125 0 0.640625 -0.125q0.3125 -0.125 0.46875 -0.265625l0 -0.71875l-1.109375 0zm1.8631287 2.5625l0 -0.34375l3.09375 0l0 0.34375l-3.09375 0zm3.2913818 -2.921875q0 -0.953125 0.515625 -1.484375q0.515625 -0.53125 1.3125 -0.53125q0.53125 0 0.953125 0.25q0.421875 0.25 0.640625 0.703125q0.234375 0.453125 0.234375 1.015625q0 0.578125 -0.234375 1.046875q-0.234375 0.453125 -0.671875 0.6875q-0.421875 0.234375 -0.921875 0.234375q-0.53125 0 -0.96875 -0.25q-0.421875 -0.265625 -0.640625 -0.71875q-0.21875 -0.453125 -0.21875 -0.953125zm0.53125 0.015625q0 0.6875 0.359375 1.09375q0.375 0.390625 0.9375 0.390625q0.578125 0 0.9375 -0.40625q0.375 -0.40625 0.375 -1.140625q0 -0.46875 -0.171875 -0.8125q-0.15625 -0.34375 -0.453125 -0.53125q-0.296875 -0.203125 -0.671875 -0.203125q-0.546875 0 -0.9375 0.375q-0.375 0.375 -0.375 1.234375zm6.269409 -1.96875l0.515625 0l0 2.203125q0 0.578125 -0.140625 0.921875q-0.125 0.328125 -0.46875 0.546875q-0.328125 0.203125 -0.890625 0.203125q-0.53125 0 -0.875 -0.171875q-0.34375 -0.1875 -0.484375 -0.53125q-0.140625 -0.359375 -0.140625 -0.96875l0 -2.203125l0.5 0l0 2.203125q0 0.5 0.09375 0.734375q0.09375 0.234375 0.3125 0.359375q0.234375 0.125 0.5625 0.125q0.546875 0 0.78125 -0.25q0.234375 -0.25 0.234375 -0.96875l0 -2.203125zm2.3165588 3.8125l0 -3.359375l-1.25 0l0 -0.453125l3.015625 0l0 0.453125l-1.25 0l0 3.359375l-0.515625 0zm2.2858887 0l0 -3.8125l1.4375 0q0.390625 0 0.59375 0.03125q0.265625 0.046875 0.453125 0.1875q0.203125 0.125 0.3125 0.359375q0.125 0.234375 0.125 0.53125q0 0.484375 -0.3125 0.828125q-0.3125 0.328125 -1.125 0.328125l-0.96875 0l0 1.546875l-0.515625 0zm0.515625 -2.0l0.984375 0q0.484375 0 0.6875 -0.171875q0.203125 -0.1875 0.203125 -0.515625q0 -0.25 -0.125 -0.421875q-0.109375 -0.171875 -0.3125 -0.21875q-0.125 -0.03125 -0.46875 -0.03125l-0.96875 0l0 1.359375zm5.5381775 -1.8125l0.515625 0l0 2.203125q0 0.578125 -0.140625 0.921875q-0.125 0.328125 -0.46875 0.546875q-0.328125 0.203125 -0.890625 0.203125q-0.53125 0 -0.875 -0.171875q-0.34375 -0.1875 -0.484375 -0.53125q-0.140625 -0.359375 -0.140625 -0.96875l0 -2.203125l0.5 0l0 2.203125q0 0.5 0.09375 0.734375q0.09375 0.234375 0.3125 0.359375q0.234375 0.125 0.5625 0.125q0.546875 0 0.78125 -0.25q0.234375 -0.25 0.234375 -0.96875l0 -2.203125zm2.3165588 3.8125l0 -3.359375l-1.25 0l0 -0.453125l3.015625 0l0 0.453125l-1.25 0l0 3.359375l-0.515625 0zm6.076111 -2.25l-2.515625 0l0 -0.421875l2.515625 0l0 0.421875zm0 1.171875l-2.515625 0l0 -0.4375l2.515625 0l0 0.4375zm3.1115417 -1.171875l-2.515625 0l0 -0.421875l2.515625 0l0 0.421875zm0 1.171875l-2.515625 0l0 -0.4375l2.515625 0l0 0.4375zm1.9981384 -0.796875q0 -0.6875 0.140625 -1.09375q0.140625 -0.40625 0.40625 -0.625q0.28125 -0.234375 0.703125 -0.234375q0.296875 0 0.53125 0.125q0.234375 0.125 0.375 0.359375q0.15625 0.234375 0.234375 0.5625q0.09375 0.328125 0.09375 0.90625q0 0.671875 -0.140625 1.078125q-0.125 0.40625 -0.40625 0.640625q-0.265625 0.21875 -0.6875 0.21875q-0.5625 0 -0.875 -0.390625q-0.375 -0.484375 -0.375 -1.546875zm0.484375 0q0 0.9375 0.21875 1.25q0.21875 0.3125 0.546875 0.3125q0.3125 0 0.53125 -0.3125q0.234375 -0.3125 0.234375 -1.25q0 -0.953125 -0.234375 -1.25q-0.21875 -0.3125 -0.546875 -0.3125q-0.3125 0 -0.515625 0.265625q-0.234375 0.359375 -0.234375 1.296875zm3.912323 0.5q0 -0.78125 0.4375 -1.140625q0.34375 -0.3125 0.859375 -0.3125q0.578125 0 0.9375 0.375q0.359375 0.375 0.359375 1.03125q0 0.53125 -0.15625 0.84375q-0.15625 0.296875 -0.46875 0.46875q-0.3125 0.171875 -0.671875 0.171875q-0.578125 0 -0.9375 -0.375q-0.359375 -0.375 -0.359375 -1.0625zm0.484375 0q0 0.53125 0.234375 0.796875q0.234375 0.25 0.578125 0.25q0.359375 0 0.578125 -0.265625q0.234375 -0.265625 0.234375 -0.796875q0 -0.515625 -0.234375 -0.78125q-0.234375 -0.265625 -0.578125 -0.265625q-0.34375 0 -0.578125 0.265625q-0.234375 0.265625 -0.234375 0.796875zm2.6507568 1.375l0 -2.765625l0.421875 0l0 0.421875q0.15625 -0.296875 0.296875 -0.390625q0.140625 -0.09375 0.296875 -0.09375q0.25 0 0.484375 0.15625l-0.15625 0.4375q-0.171875 -0.109375 -0.34375 -0.109375q-0.15625 0 -0.28125 0.09375q-0.125 0.09375 -0.171875 0.25q-0.078125 0.25 -0.078125 0.546875l0 1.453125l-0.46875 0zm4.8952637 0l-0.46875 0l0 -2.984375q-0.171875 0.15625 -0.453125 0.328125q-0.265625 0.15625 -0.484375 0.234375l0 -0.453125q0.390625 -0.1875 0.6875 -0.4375q0.296875 -0.265625 0.421875 -0.515625l0.296875 0l0 3.828125z" fill-rule="nonzero"/><path fill="#000000" fill-opacity="0.0" d="m5.2519684 49.524933l121.35433 0" fill-rule="evenodd"/><path stroke="#000000" stroke-width="1.0" stroke-linejoin="round" stroke-linecap="butt" d="m5.2519684 49.524933l115.35433 0" fill-rule="evenodd"/><path fill="#000000" stroke="#000000" stroke-width="1.0" stroke-linecap="butt" d="m120.6063 51.176666l4.5380936 -1.6517334l-4.5380936 -1.6517296z" fill-rule="evenodd"/><path fill="#000000" fill-opacity="0.0" d="m5.2519684 133.42258l121.35433 0" fill-rule="evenodd"/><path stroke="#000000" stroke-width="1.0" stroke-linejoin="round" stroke-linecap="butt" d="m5.2519684 133.42258l115.35433 0" fill-rule="evenodd"/><path fill="#000000" stroke="#000000" stroke-width="1.0" stroke-linecap="butt" d="m120.6063 135.07431l4.5380936 -1.6517334l-4.5380936 -1.6517334z" fill-rule="evenodd"/><path fill="#000000" fill-opacity="0.0" d="m4.844235 218.9029l121.354324 0" fill-rule="evenodd"/><path stroke="#000000" stroke-width="1.0" stroke-linejoin="round" stroke-linecap="butt" d="m10.844234 218.9029l115.354324 0" fill-rule="evenodd"/><path fill="#000000" stroke="#000000" stroke-width="1.0" stroke-linecap="butt" d="m10.844234 217.25116l-4.538097 1.6517334l4.538097 1.6517334z" fill-rule="evenodd"/><path fill="#000000" fill-opacity="0.0" d="m465.9685 133.42258l120.06299 0" fill-rule="evenodd"/><path stroke="#000000" stroke-width="1.0" stroke-linejoin="round" stroke-linecap="butt" d="m465.9685 133.42258l114.06299 0" fill-rule="evenodd"/><path fill="#000000" stroke="#000000" stroke-width="1.0" stroke-linecap="butt" d="m580.0315 135.07431l4.538086 -1.6517334l-4.538086 -1.6517334z" fill-rule="evenodd"/><path fill="#000000" fill-opacity="0.0" d="m464.24982 218.9029l121.35431 0" fill-rule="evenodd"/><path stroke="#000000" stroke-width="1.0" stroke-linejoin="round" stroke-linecap="butt" d="m470.2498 218.9029l115.35434 0" fill-rule="evenodd"/><path fill="#000000" stroke="#000000" stroke-width="1.0" stroke-linecap="butt" d="m470.2498 217.25116l-4.538086 1.6517334l4.538086 1.6517334z" fill-rule="evenodd"/><path fill="#000000" fill-opacity="0.0" d="m65.31233 140.54593l-6.9921227 -12.094482" fill-rule="evenodd"/><path stroke="#000000" stroke-width="1.0" stroke-linejoin="round" stroke-linecap="butt" d="m65.31233 140.54593l-6.9921227 -12.094482" fill-rule="evenodd"/><path fill="#000000" fill-opacity="0.0" d="m520.1102 142.09448l-8.503937 -14.74015" fill-rule="evenodd"/><path stroke="#000000" stroke-width="1.0" stroke-linejoin="round" stroke-linecap="butt" d="m520.1102 142.09448l-8.503937 -14.74015" fill-rule="evenodd"/><path fill="#000000" fill-opacity="0.0" d="m465.56693 141.12862l99.40158 0l0 32.314957l-99.40158 0z" fill-rule="evenodd"/><path fill="#000000" d="m503.31577 159.60298l-0.15625 0.765625q-0.34375 0.09375 -0.65625 0.09375q-0.5625 0 -0.90625 -0.28125q-0.25 -0.203125 -0.25 -0.5625q0 -0.1875 0.140625 -0.84375l0.671875 -3.203125l-0.75 0l0.15625 -0.734375l0.75 0l0.28125 -1.359375l1.078125 -0.640625l-0.421875 2.0l0.921875 0l-0.15625 0.734375l-0.921875 0l-0.640625 3.046875q-0.109375 0.59375 -0.109375 0.703125q0 0.171875 0.09375 0.265625q0.09375 0.078125 0.3125 0.078125q0.3125 0 0.5625 -0.0625zm0.39813232 2.90625l0.0625 -0.890625q0.28125 0.078125 0.5625 0.078125q0.28125 0 0.46875 -0.125q0.21875 -0.171875 0.5 -0.640625l0.296875 -0.546875l-0.921875 -5.546875l0.921875 0l0.421875 2.796875q0.125 0.828125 0.21875 1.65625l2.46875 -4.453125l0.984375 0l-3.53125 6.265625q-0.5 0.921875 -0.90625 1.21875q-0.390625 0.296875 -0.90625 0.296875q-0.328125 0 -0.640625 -0.109375zm5.21875 -0.015625l1.59375 -7.65625l0.875 0l-0.15625 0.78125q0.46875 -0.515625 0.8437805 -0.703125q0.390625 -0.203125 0.828125 -0.203125q0.78125 0 1.296875 0.578125q0.53125 0.578125 0.53125 1.65625q0 0.859375 -0.296875 1.578125q-0.28125 0.703125 -0.703125 1.140625q-0.40625 0.421875 -0.84375 0.625q-0.421875 0.203125 -0.859375 0.203125q-1.0000305 0 -1.5469055 -1.015625l-0.625 3.015625l-0.9375 0zm1.859375 -4.390625q0 0.625 0.09375 0.859375q0.125 0.34375 0.421875 0.5625q0.296875 0.203125 0.6875 0.203125q0.8125305 0 1.3125305 -0.90625q0.5 -0.921875 0.5 -1.875q0 -0.703125 -0.34375 -1.078125q-0.328125 -0.390625 -0.828125 -0.390625q-0.359375 0 -0.6719055 0.1875q-0.296875 0.1875 -0.5625 0.578125q-0.265625 0.375 -0.4375 0.921875q-0.171875 0.53125 -0.171875 0.9375zm8.582733 0.390625l0.921875 0.09375q-0.203125 0.671875 -0.921875 1.296875q-0.703125 0.609375 -1.6875 0.609375q-0.609375 0 -1.125 -0.28125q-0.5 -0.28125 -0.78125 -0.828125q-0.265625 -0.546875 -0.265625 -1.234375q0 -0.90625 0.421875 -1.75q0.421875 -0.859375 1.078125 -1.265625q0.671875 -0.421875 1.453125 -0.421875q0.984375 0 1.578125 0.625q0.59375 0.609375 0.59375 1.671875q0 0.40625 -0.078125 0.828125l-4.0625 0q-0.03125 0.15625 -0.03125 0.296875q0 0.765625 0.359375 1.1875q0.359375 0.40625 0.875 0.40625q0.484375 0 0.953125 -0.3125q0.46875 -0.328125 0.71875 -0.921875zm-2.734375 -1.375l3.109375 0q0 -0.140625 0 -0.203125q0 -0.703125 -0.359375 -1.078125q-0.34375 -0.390625 -0.90625 -0.390625q-0.609375 0 -1.109375 0.421875q-0.484375 0.421875 -0.734375 1.25zm3.5827637 5.375l0 -0.6875l6.203125 0l0 0.6875l-6.203125 0zm9.160889 -2.890625l-0.15625 0.765625q-0.34375 0.09375 -0.65625 0.09375q-0.5625 0 -0.90625 -0.28125q-0.25 -0.203125 -0.25 -0.5625q0 -0.1875 0.140625 -0.84375l0.671875 -3.203125l-0.75 0l0.15625 -0.734375l0.75 0l0.28125 -1.359375l1.078125 -0.640625l-0.421875 2.0l0.921875 0l-0.15625 0.734375l-0.921875 0l-0.640625 3.046875q-0.109375 0.59375 -0.109375 0.703125q0 0.171875 0.09375 0.265625q0.09375 0.078125 0.3125 0.078125q0.3125 0 0.5625 -0.0625z" fill-rule="nonzero"/><path fill="#000000" fill-opacity="0.0" d="m2.7533362 138.07874l120.062996 0l0 32.314972l-120.062996 0z" fill-rule="evenodd"/><path fill="#000000" d="m50.83288 157.3106l-0.15625 0.765625q-0.34375 0.09375 -0.65625 0.09375q-0.5625 0 -0.90625 -0.28125q-0.25 -0.203125 -0.25 -0.5625q0 -0.1875 0.140625 -0.84375l0.671875 -3.203125l-0.75 0l0.15625 -0.734375l0.75 0l0.28125 -1.359375l1.078125 -0.640625l-0.421875 2.0l0.921875 0l-0.15625 0.734375l-0.921875 0l-0.640625 3.046875q-0.109375 0.59375 -0.109375 0.703125q0 0.171875 0.09375 0.265625q0.09375 0.078125 0.3125 0.078125q0.3125 0 0.5625 -0.0625zm0.39814758 2.90625l0.0625 -0.890625q0.28125 0.078125 0.5625 0.078125q0.28125 0 0.46875 -0.125q0.21875 -0.171875 0.5 -0.640625l0.296875 -0.546875l-0.921875 -5.546875l0.921875 0l0.421875 2.796875q0.125 0.828125 0.21875 1.65625l2.46875 -4.453125l0.984375 0l-3.53125 6.265625q-0.5 0.921875 -0.90625 1.21875q-0.390625 0.296875 -0.90625 0.296875q-0.328125 0 -0.640625 -0.109375zm5.21875 -0.015625l1.59375 -7.65625l0.875 0l-0.15625 0.78125q0.46875 -0.515625 0.84375 -0.703125q0.390625 -0.203125 0.828125 -0.203125q0.78125 0 1.296875 0.578125q0.53125 0.578125 0.53125 1.65625q0 0.859375 -0.296875 1.578125q-0.28125 0.703125 -0.703125 1.140625q-0.40625 0.421875 -0.84375 0.625q-0.421875 0.203125 -0.859375 0.203125q-1.0 0 -1.546875 -1.015625l-0.625 3.015625l-0.9375 0zm1.859375 -4.390625q0 0.625 0.09375 0.859375q0.125 0.34375 0.421875 0.5625q0.296875 0.203125 0.6875 0.203125q0.8125 0 1.3125 -0.90625q0.5 -0.921875 0.5 -1.875q0 -0.703125 -0.34375 -1.078125q-0.328125 -0.390625 -0.828125 -0.390625q-0.359375 0 -0.671875 0.1875q-0.296875 0.1875 -0.5625 0.578125q-0.265625 0.375 -0.4375 0.921875q-0.171875 0.53125 -0.171875 0.9375zm8.582748 0.390625l0.921875 0.09375q-0.203125 0.671875 -0.921875 1.296875q-0.703125 0.609375 -1.6875 0.609375q-0.609375 0 -1.125 -0.28125q-0.5 -0.28125 -0.78125 -0.828125q-0.265625 -0.546875 -0.265625 -1.234375q0 -0.90625 0.421875 -1.75q0.421875 -0.859375 1.078125 -1.265625q0.671875 -0.421875 1.453125 -0.421875q0.984375 0 1.578125 0.625q0.59375 0.609375 0.59375 1.671875q0 0.40625 -0.078125 0.828125l-4.0625 0q-0.03125 0.15625 -0.03125 0.296875q0 0.765625 0.359375 1.1875q0.359375 0.40625 0.875 0.40625q0.484375 0 0.953125 -0.3125q0.46875 -0.328125 0.71875 -0.921875zm-2.734375 -1.375l3.109375 0q0 -0.140625 0 -0.203125q0 -0.703125 -0.359375 -1.078125q-0.34375 -0.390625 -0.90625 -0.390625q-0.609375 0 -1.109375 0.421875q-0.484375 0.421875 -0.734375 1.25zm3.5827484 5.375l0 -0.6875l6.203125 0l0 0.6875l-6.203125 0zm9.160873 -2.890625l-0.15625 0.765625q-0.34375 0.09375 -0.65625 0.09375q-0.5625 0 -0.90625 -0.28125q-0.25 -0.203125 -0.25 -0.5625q0 -0.1875 0.140625 -0.84375l0.671875 -3.203125l-0.75 0l0.15625 -0.734375l0.75 0l0.28125 -1.359375l1.078125 -0.640625l-0.421875 2.0l0.921875 0l-0.15625 0.734375l-0.921875 0l-0.640625 3.046875q-0.109375 0.59375 -0.109375 0.703125q0 0.171875 0.09375 0.265625q0.09375 0.078125 0.3125 0.078125q0.3125 0 0.5625 -0.0625z" fill-rule="nonzero"/><path fill="#000000" fill-opacity="0.0" d="m28.805462 21.570383l100.944885 0l0 32.314957l-100.944885 0z" fill-rule="evenodd"/><path fill="#000000" d="m38.571087 34.529133l0 -1.34375l1.46875 0l0 1.34375l-1.46875 0zm0 6.28125l0 -5.53125l1.46875 0l0 5.53125l-1.46875 0zm7.9918976 0l-1.46875 0l0 -2.8125q0 -0.90625 -0.09375 -1.15625q-0.09375 -0.265625 -0.3125 -0.40625q-0.203125 -0.15625 -0.5 -0.15625q-0.375 0 -0.6875 0.21875q-0.296875 0.203125 -0.40625 0.546875q-0.109375 0.34375 -0.109375 1.265625l0 2.5l-1.46875 0l0 -5.53125l1.359375 0l0 0.8125q0.71875 -0.9375 1.828125 -0.9375q0.484375 0 0.875 0.1875q0.40625 0.171875 0.609375 0.4375q0.203125 0.265625 0.28125 0.609375q0.09375 0.34375 0.09375 0.984375l0 3.4375zm0.6186371 2.109375l0 -0.953125l6.078125 0l0 0.953125l-6.078125 0zm8.301498 -2.109375l-2.21875 -5.53125l1.53125 0l1.046875 2.828125l0.296875 0.9375q0.109375 -0.359375 0.140625 -0.46875q0.078125 -0.234375 0.15625 -0.46875l1.0625 -2.828125l1.5 0l-2.203125 5.53125l-1.3125 0zm5.5046234 -3.84375l-1.328125 -0.234375q0.21875 -0.796875 0.765625 -1.1875q0.546875 -0.390625 1.625 -0.390625q0.984375 0 1.453125 0.234375q0.484375 0.234375 0.6718788 0.59375q0.203125 0.359375 0.203125 1.3125l-0.015625 1.703125q0 0.71875 0.0625 1.078125q0.078125 0.34375 0.265625 0.734375l-1.4375038 0q-0.0625 -0.140625 -0.140625 -0.4375q-0.046875 -0.125 -0.0625 -0.171875q-0.375 0.375 -0.796875 0.5625q-0.421875 0.171875 -0.90625 0.171875q-0.859375 0 -1.359375 -0.453125q-0.484375 -0.46875 -0.484375 -1.1875q0 -0.46875 0.21875 -0.828125q0.234375 -0.359375 0.640625 -0.546875q0.40625 -0.203125 1.15625 -0.359375q1.03125 -0.1875 1.421875 -0.359375l0 -0.140625q0 -0.421875 -0.21875 -0.59375q-0.203125 -0.1875 -0.78125 -0.1875q-0.375 0 -0.59375 0.15625q-0.21875 0.15625 -0.359375 0.53125zm1.953125 1.1875q-0.28125 0.09375 -0.890625 0.234375q-0.609375 0.125 -0.796875 0.25q-0.28125 0.203125 -0.28125 0.515625q0 0.296875 0.21875 0.53125q0.234375 0.21875 0.59375 0.21875q0.390625 0 0.75 -0.265625q0.265625 -0.1875 0.34375 -0.484375q0.0625 -0.1875 0.0625 -0.703125l0 -0.296875zm2.8796272 2.65625l0 -7.625l1.46875 0l0 7.625l-1.46875 0zm2.9606476 -6.28125l0 -1.34375l1.46875 0l0 1.34375l-1.46875 0zm0 6.28125l0 -5.53125l1.46875 0l0 5.53125l-1.46875 0zm8.023148 0l-1.359375 0l0 -0.8125q-0.328125 0.46875 -0.796875 0.703125q-0.453125 0.234375 -0.921875 0.234375q-0.953125 0 -1.640625 -0.765625q-0.671875 -0.765625 -0.671875 -2.140625q0 -1.40625 0.65625 -2.140625q0.671875 -0.734375 1.671875 -0.734375q0.921875 0 1.609375 0.78125l0 -2.75l1.453125 0l0 7.625zm-3.890625 -2.875q0 0.875 0.234375 1.265625q0.359375 0.578125 0.984375 0.578125q0.515625 0 0.859375 -0.421875q0.359375 -0.4375 0.359375 -1.28125q0 -0.953125 -0.34375 -1.375q-0.34375 -0.421875 -0.875 -0.421875q-0.515625 0 -0.875 0.421875q-0.34375 0.40625 -0.34375 1.234375zm4.478012 4.984375l0 -0.953125l6.078125 0l0 0.953125l-6.078125 0zm6.7858734 -8.390625l0 -1.34375l1.46875 0l0 1.34375l-1.46875 0zm0 6.28125l0 -5.53125l1.46875 0l0 5.53125l-1.46875 0z" fill-rule="nonzero"/><path fill="#000000" fill-opacity="0.0" d="m28.805462 101.10844l100.944885 0l0 32.314964l-100.944885 0z" fill-rule="evenodd"/><path fill="#000000" d="m38.571087 114.06719l0 -1.34375l1.46875 0l0 1.34375l-1.46875 0zm0 6.28125l0 -5.53125l1.46875 0l0 5.53125l-1.46875 0zm7.9918976 0l-1.46875 0l0 -2.8125q0 -0.90625 -0.09375 -1.15625q-0.09375 -0.265625 -0.3125 -0.40625q-0.203125 -0.15625 -0.5 -0.15625q-0.375 0 -0.6875 0.21875q-0.296875 0.203125 -0.40625 0.546875q-0.109375 0.34375 -0.109375 1.265625l0 2.5l-1.46875 0l0 -5.53125l1.359375 0l0 0.8125q0.71875 -0.9375 1.828125 -0.9375q0.484375 0 0.875 0.1875q0.40625 0.171875 0.609375 0.4375q0.203125 0.265625 0.28125 0.609375q0.09375 0.34375 0.09375 0.984375l0 3.4375zm0.6186371 2.109375l0 -0.953125l6.078125 0l0 0.953125l-6.078125 0zm11.848373 -2.109375l-1.359375 0l0 -0.8125q-0.328125 0.46875 -0.796875 0.703125q-0.453125 0.234375 -0.921875 0.234375q-0.953125 0 -1.640625 -0.765625q-0.671875 -0.765625 -0.671875 -2.140625q0 -1.40625 0.65625 -2.140625q0.671875 -0.734375 1.671875 -0.734375q0.921875 0 1.609375 0.78125l0 -2.75l1.453125 0l0 7.625zm-3.890625 -2.875q0 0.875 0.234375 1.265625q0.359375 0.578125 0.984375 0.578125q0.515625 0 0.859375 -0.421875q0.359375 -0.4375 0.359375 -1.28125q0 -0.953125 -0.34375 -1.375q-0.34375 -0.421875 -0.875 -0.421875q-0.515625 0 -0.875 0.421875q-0.34375 0.40625 -0.34375 1.234375zm6.431137 -0.96875l-1.328125 -0.234375q0.21875 -0.796875 0.765625 -1.1875q0.546875 -0.390625 1.625 -0.390625q0.984375 0 1.4531288 0.234375q0.484375 0.234375 0.671875 0.59375q0.203125 0.359375 0.203125 1.3125l-0.015625 1.703125q0 0.71875 0.0625 1.078125q0.078125 0.34375 0.265625 0.734375l-1.4375038 0q-0.0625 -0.140625 -0.140625 -0.4375q-0.046875 -0.125 -0.0625 -0.171875q-0.375 0.375 -0.796875 0.5625q-0.421875 0.171875 -0.90625 0.171875q-0.859375 0 -1.359375 -0.453125q-0.484375 -0.46875 -0.484375 -1.1875q0 -0.46875 0.21875 -0.828125q0.234375 -0.359375 0.640625 -0.546875q0.40625 -0.203125 1.15625 -0.359375q1.03125 -0.1875 1.421875 -0.359375l0 -0.140625q0 -0.421875 -0.21875 -0.59375q-0.203125 -0.1875 -0.78125 -0.1875q-0.375 0 -0.59375 0.15625q-0.21875 0.15625 -0.359375 0.53125zm1.953125 1.1875q-0.28125 0.09375 -0.890625 0.234375q-0.609375 0.125 -0.796875 0.25q-0.28125 0.203125 -0.28125 0.515625q0 0.296875 0.21875 0.53125q0.234375 0.21875 0.59375 0.21875q0.390625 0 0.75 -0.265625q0.265625 -0.1875 0.34375 -0.484375q0.0625 -0.1875 0.0625 -0.703125l0 -0.296875zm5.410877 -2.875l0 1.171875l-1.0 0l0 2.21875q0 0.6875 0.03125 0.796875q0.03125 0.109375 0.125 0.1875q0.109375 0.0625 0.25 0.0625q0.203125 0 0.59375 -0.140625l0.125 1.140625q-0.515625 0.21875 -1.15625 0.21875q-0.390625 0 -0.71875 -0.125q-0.3125 -0.140625 -0.46875 -0.34375q-0.140625 -0.21875 -0.203125 -0.578125q-0.046875 -0.25 -0.046875 -1.03125l0 -2.40625l-0.671875 0l0 -1.171875l0.671875 0l0 -1.09375l1.46875 -0.859375l0 1.953125l1.0 0zm2.1111145 1.6875l-1.328125 -0.234375q0.21875 -0.796875 0.765625 -1.1875q0.546875 -0.390625 1.625 -0.390625q0.984375 0 1.453125 0.234375q0.484375 0.234375 0.671875 0.59375q0.203125 0.359375 0.203125 1.3125l-0.015625 1.703125q0 0.71875 0.0625 1.078125q0.078125 0.34375 0.265625 0.734375l-1.4375 0q-0.0625 -0.140625 -0.140625 -0.4375q-0.046875 -0.125 -0.0625 -0.171875q-0.375 0.375 -0.796875 0.5625q-0.421875 0.171875 -0.90625 0.171875q-0.859375 0 -1.359375 -0.453125q-0.484375 -0.46875 -0.484375 -1.1875q0 -0.46875 0.21875 -0.828125q0.234375 -0.359375 0.640625 -0.546875q0.40625 -0.203125 1.15625 -0.359375q1.03125 -0.1875 1.421875 -0.359375l0 -0.140625q0 -0.421875 -0.21875 -0.59375q-0.203125 -0.1875 -0.78125 -0.1875q-0.375 0 -0.59375 0.15625q-0.21875 0.15625 -0.359375 0.53125zm1.953125 1.1875q-0.28125 0.09375 -0.890625 0.234375q-0.609375 0.125 -0.796875 0.25q-0.28125 0.203125 -0.28125 0.515625q0 0.296875 0.21875 0.53125q0.234375 0.21875 0.59375 0.21875q0.390625 0 0.75 -0.265625q0.265625 -0.1875 0.34375 -0.484375q0.0625 -0.1875 0.0625 -0.703125l0 -0.296875zm2.0202484 4.765625l0 -0.953125l6.078125 0l0 0.953125l-6.078125 0zm6.7858734 -8.390625l0 -1.34375l1.46875 0l0 1.34375l-1.46875 0zm0 6.28125l0 -5.53125l1.46875 0l0 5.53125l-1.46875 0z" fill-rule="nonzero"/><path fill="#000000" fill-opacity="0.0" d="m26.086302 186.58876l100.94488 0l0 32.314957l-100.94488 0z" fill-rule="evenodd"/><path fill="#000000" d="m35.85193 199.5475l0 -1.34375l1.46875 0l0 1.34375l-1.46875 0zm0 6.28125l0 -5.53125l1.46875 0l0 5.53125l-1.46875 0zm7.9918976 0l-1.46875 0l0 -2.8125q0 -0.90625 -0.09375 -1.15625q-0.09375 -0.265625 -0.3125 -0.40625q-0.203125 -0.15625 -0.5 -0.15625q-0.375 0 -0.6875 0.21875q-0.296875 0.203125 -0.40625 0.546875q-0.109375 0.34375 -0.109375 1.265625l0 2.5l-1.46875 0l0 -5.53125l1.359375 0l0 0.8125q0.71875 -0.9375 1.828125 -0.9375q0.484375 0 0.875 0.1875q0.40625 0.171875 0.609375 0.4375q0.203125 0.265625 0.28125 0.609375q0.09375 0.34375 0.09375 0.984375l0 3.4375zm0.6186371 2.109375l0 -0.953125l6.078125 0l0 0.953125l-6.078125 0zm8.192123 -2.109375l-1.46875 0l0 -5.53125l1.359375 0l0 0.796875q0.34375 -0.5625 0.625 -0.734375q0.28125 -0.1875 0.625 -0.1875q0.5 0 0.96875 0.28125l-0.453125 1.28125q-0.375 -0.25 -0.6875 -0.25q-0.3125 0 -0.53125 0.171875q-0.203125 0.171875 -0.328125 0.625q-0.109375 0.4375 -0.109375 1.84375l0 1.703125zm5.943863 -1.765625l1.453125 0.25q-0.28125 0.796875 -0.890625 1.21875q-0.609375 0.421875 -1.515625 0.421875q-1.4375 0 -2.125 -0.9375q-0.546875 -0.765625 -0.546875 -1.90625q0 -1.375 0.71875 -2.15625q0.71875 -0.78125 1.8125 -0.78125q1.234375 0 1.9375 0.828125q0.71875 0.8125 0.6875 2.484375l-3.65625 0q0.015625 0.65625 0.34375 1.015625q0.34375 0.359375 0.84375 0.359375q0.34375 0 0.578125 -0.1875q0.234375 -0.1875 0.359375 -0.609375zm0.078125 -1.46875q-0.015625 -0.640625 -0.328125 -0.96875q-0.3125 -0.328125 -0.765625 -0.328125q-0.46875 0 -0.78125 0.34375q-0.3125 0.359375 -0.3125 0.953125l2.1875 0zm3.7389984 -0.609375l-1.328125 -0.234375q0.21875 -0.796875 0.765625 -1.1875q0.546875 -0.390625 1.625 -0.390625q0.984375 0 1.453125 0.234375q0.484375 0.234375 0.671875 0.59375q0.203125 0.359375 0.203125 1.3125l-0.015625 1.703125q0 0.71875 0.0625 1.078125q0.078125 0.34375 0.265625 0.734375l-1.4375 0q-0.0625 -0.140625 -0.140625 -0.4375q-0.046875 -0.125 -0.0625 -0.171875q-0.375 0.375 -0.796875 0.5625q-0.421875 0.171875 -0.90625 0.171875q-0.859375 0 -1.359375 -0.453125q-0.484375 -0.46875 -0.484375 -1.1875q0 -0.46875 0.21875 -0.828125q0.234375 -0.359375 0.640625 -0.546875q0.40625 -0.203125 1.15625 -0.359375q1.03125 -0.1875 1.421875 -0.359375l0 -0.140625q0 -0.421875 -0.21875 -0.59375q-0.203125 -0.1875 -0.78125 -0.1875q-0.375 0 -0.59375 0.15625q-0.21875 0.15625 -0.359375 0.53125zm1.953125 1.1875q-0.28125 0.09375 -0.890625 0.234375q-0.609375 0.125 -0.796875 0.25q-0.28125 0.203125 -0.28125 0.515625q0 0.296875 0.21875 0.53125q0.234375 0.21875 0.59375 0.21875q0.390625 0 0.75 -0.265625q0.265625 -0.1875 0.34375 -0.484375q0.0625 -0.1875 0.0625 -0.703125l0 -0.296875zm7.9421234 2.65625l-1.359375 0l0 -0.8125q-0.328125 0.46875 -0.796875 0.703125q-0.453125 0.234375 -0.921875 0.234375q-0.953125 0 -1.640625 -0.765625q-0.671875 -0.765625 -0.671875 -2.140625q0 -1.40625 0.65625 -2.140625q0.671875 -0.734375 1.671875 -0.734375q0.921875 0 1.609375 0.78125l0 -2.75l1.453125 0l0 7.625zm-3.890625 -2.875q0 0.875 0.234375 1.265625q0.359375 0.578125 0.984375 0.578125q0.515625 0 0.859375 -0.421875q0.359375 -0.4375 0.359375 -1.28125q0 -0.953125 -0.34375 -1.375q-0.34375 -0.421875 -0.875 -0.421875q-0.515625 0 -0.875 0.421875q-0.34375 0.40625 -0.34375 1.234375zm4.649887 -2.65625l1.546875 0l1.328125 3.921875l1.28125 -3.921875l1.515625 0l-1.953125 5.328125l-0.34375 0.953125q-0.1875 0.484375 -0.375 0.734375q-0.171875 0.265625 -0.390625 0.421875q-0.21875 0.15625 -0.5625 0.25q-0.328125 0.09375 -0.734375 0.09375q-0.421875 0 -0.828125 -0.09375l-0.140625 -1.140625q0.34375 0.0625 0.625 0.0625q0.515625 0 0.75 -0.296875q0.25 -0.296875 0.375 -0.765625l-2.09375 -5.546875zm5.7546234 7.640625l0 -0.953125l6.078125 0l0 0.953125l-6.078125 0zm6.4421234 -4.953125q0 -0.71875 0.359375 -1.40625q0.359375 -0.6875 1.015625 -1.046875q0.671875 -0.359375 1.46875 -0.359375q1.265625 0 2.0625 0.828125q0.796875 0.8125 0.796875 2.046875q0 1.25 -0.8125 2.078125q-0.796875 0.828125 -2.03125 0.828125q-0.75 0 -1.453125 -0.34375q-0.6875 -0.34375 -1.046875 -1.0q-0.359375 -0.671875 -0.359375 -1.625zm1.5 0.078125q0 0.828125 0.390625 1.265625q0.390625 0.4375 0.96875 0.4375q0.5625 0 0.953125 -0.4375q0.390625 -0.4375 0.390625 -1.265625q0 -0.8125 -0.390625 -1.25q-0.390625 -0.4375 -0.953125 -0.4375q-0.578125 0 -0.96875 0.4375q-0.390625 0.4375 -0.390625 1.25z" fill-rule="nonzero"/><path fill="#000000" fill-opacity="0.0" d="m468.80545 21.570383l100.944916 0l0 32.314957l-100.944916 0z" fill-rule="evenodd"/><path fill="#000000" d="m478.22733 37.966633q0 -0.71875 0.359375 -1.40625q0.359375 -0.6875 1.015625 -1.046875q0.671875 -0.359375 1.46875 -0.359375q1.265625 0 2.0625 0.828125q0.796875 0.8125 0.796875 2.046875q0 1.25 -0.8125 2.078125q-0.796875 0.828125 -2.03125 0.828125q-0.75 0 -1.453125 -0.34375q-0.6875 -0.34375 -1.046875 -1.0q-0.359375 -0.671875 -0.359375 -1.625zm1.5 0.078125q0 0.828125 0.390625 1.265625q0.390625 0.4375 0.96875 0.4375q0.5625 0 0.953125 -0.4375q0.390625 -0.4375 0.390625 -1.265625q0 -0.8125 -0.390625 -1.25q-0.390625 -0.4375 -0.953125 -0.4375q-0.578125 0 -0.96875 0.4375q-0.390625 0.4375 -0.390625 1.25zm8.993652 2.765625l0 -0.828125q-0.3125 0.4375 -0.8125 0.703125q-0.484375 0.25 -1.015625 0.25q-0.5625 0 -1.015625 -0.234375q-0.4375 -0.25 -0.640625 -0.6875q-0.1875 -0.453125 -0.1875 -1.234375l0 -3.5l1.46875 0l0 2.546875q0 1.15625 0.078125 1.421875q0.078125 0.265625 0.28125 0.421875q0.21875 0.15625 0.546875 0.15625q0.375 0 0.671875 -0.203125q0.296875 -0.21875 0.40625 -0.515625q0.109375 -0.3125 0.109375 -1.484375l0 -2.34375l1.46875 0l0 5.53125l-1.359375 0zm5.399872 -5.53125l0 1.171875l-1.0 0l0 2.21875q0 0.6875 0.03125 0.796875q0.03125 0.109375 0.125 0.1875q0.109375 0.0625 0.25 0.0625q0.203125 0 0.59375 -0.140625l0.125 1.140625q-0.515625 0.21875 -1.15625 0.21875q-0.390625 0 -0.71875 -0.125q-0.3125 -0.140625 -0.46875 -0.34375q-0.140625 -0.21875 -0.203125 -0.578125q-0.046875 -0.25 -0.046875 -1.03125l0 -2.40625l-0.671875 0l0 -1.171875l0.671875 0l0 -1.09375l1.46875 -0.859375l0 1.953125l1.0 0zm0.1579895 7.640625l0 -0.953125l6.078125 0l0 0.953125l-6.078125 0zm8.301514 -2.109375l-2.21875 -5.53125l1.53125 0l1.046875 2.828125l0.296875 0.9375q0.109375 -0.359375 0.140625 -0.46875q0.078125 -0.234375 0.15625 -0.46875l1.0625 -2.828125l1.5 0l-2.203125 5.53125l-1.3125 0zm5.504608 -3.84375l-1.328125 -0.234375q0.21875 -0.796875 0.765625 -1.1875q0.546875 -0.390625 1.625 -0.390625q0.984375 0 1.453125 0.234375q0.484375 0.234375 0.671875 0.59375q0.203125 0.359375 0.203125 1.3125l-0.015625 1.703125q0 0.71875 0.0625 1.078125q0.078125 0.34375 0.265625 0.734375l-1.4375 0q-0.0625 -0.140625 -0.140625 -0.4375q-0.046875 -0.125 -0.0625 -0.171875q-0.375 0.375 -0.796875 0.5625q-0.421875 0.171875 -0.90625 0.171875q-0.859375 0 -1.359375 -0.453125q-0.484375 -0.46875 -0.484375 -1.1875q0 -0.46875 0.21875 -0.828125q0.234375 -0.359375 0.640625 -0.546875q0.40625 -0.203125 1.15625 -0.359375q1.03125 -0.1875 1.421875 -0.359375l0 -0.140625q0 -0.421875 -0.21875 -0.59375q-0.203125 -0.1875 -0.78125 -0.1875q-0.375 0 -0.59375 0.15625q-0.21875 0.15625 -0.359375 0.53125zm1.953125 1.1875q-0.28125 0.09375 -0.890625 0.234375q-0.609375 0.125 -0.796875 0.25q-0.28125 0.203125 -0.28125 0.515625q0 0.296875 0.21875 0.53125q0.234375 0.21875 0.59375 0.21875q0.390625 0 0.75 -0.265625q0.265625 -0.1875 0.34375 -0.484375q0.0625 -0.1875 0.0625 -0.703125l0 -0.296875zm2.8796387 2.65625l0 -7.625l1.46875 0l0 7.625l-1.46875 0zm2.9606323 -6.28125l0 -1.34375l1.46875 0l0 1.34375l-1.46875 0zm0 6.28125l0 -5.53125l1.46875 0l0 5.53125l-1.46875 0zm8.023132 0l-1.359375 0l0 -0.8125q-0.328125 0.46875 -0.796875 0.703125q-0.453125 0.234375 -0.921875 0.234375q-0.953125 0 -1.640625 -0.765625q-0.671875 -0.765625 -0.671875 -2.140625q0 -1.40625 0.65625 -2.140625q0.671875 -0.734375 1.671875 -0.734375q0.921875 0 1.609375 0.78125l0 -2.75l1.453125 0l0 7.625zm-3.890625 -2.875q0 0.875 0.234375 1.265625q0.359375 0.578125 0.984375 0.578125q0.515625 0 0.859375 -0.421875q0.359375 -0.4375 0.359375 -1.28125q0 -0.953125 -0.34375 -1.375q-0.34375 -0.421875 -0.875 -0.421875q-0.515625 0 -0.875 0.421875q-0.34375 0.40625 -0.34375 1.234375zm4.4780273 4.984375l0 -0.953125l6.078125 0l0 0.953125l-6.078125 0zm6.4421387 -4.953125q0 -0.71875 0.359375 -1.40625q0.359375 -0.6875 1.015625 -1.046875q0.671875 -0.359375 1.46875 -0.359375q1.265625 0 2.0625 0.828125q0.796875 0.8125 0.796875 2.046875q0 1.25 -0.8125 2.078125q-0.796875 0.828125 -2.03125 0.828125q-0.75 0 -1.453125 -0.34375q-0.6875 -0.34375 -1.046875 -1.0q-0.359375 -0.671875 -0.359375 -1.625zm1.5 0.078125q0 0.828125 0.390625 1.265625q0.390625 0.4375 0.96875 0.4375q0.5625 0 0.953125 -0.4375q0.390625 -0.4375 0.390625 -1.265625q0 -0.8125 -0.390625 -1.25q-0.390625 -0.4375 -0.953125 -0.4375q-0.578125 0 -0.96875 0.4375q-0.390625 0.4375 -0.390625 1.25z" fill-rule="nonzero"/><path fill="#000000" fill-opacity="0.0" d="m468.80545 101.10844l100.944916 0l0 32.314964l-100.944916 0z" fill-rule="evenodd"/><path fill="#000000" d="m478.22733 117.50469q0 -0.71875 0.359375 -1.40625q0.359375 -0.6875 1.015625 -1.046875q0.671875 -0.359375 1.46875 -0.359375q1.265625 0 2.0625 0.828125q0.796875 0.8125 0.796875 2.046875q0 1.25 -0.8125 2.078125q-0.796875 0.828125 -2.03125 0.828125q-0.75 0 -1.453125 -0.34375q-0.6875 -0.34375 -1.046875 -1.0q-0.359375 -0.671875 -0.359375 -1.625zm1.5 0.078125q0 0.828125 0.390625 1.265625q0.390625 0.4375 0.96875 0.4375q0.5625 0 0.953125 -0.4375q0.390625 -0.4375 0.390625 -1.265625q0 -0.8125 -0.390625 -1.25q-0.390625 -0.4375 -0.953125 -0.4375q-0.578125 0 -0.96875 0.4375q-0.390625 0.4375 -0.390625 1.25zm8.993652 2.765625l0 -0.828125q-0.3125 0.4375 -0.8125 0.703125q-0.484375 0.25 -1.015625 0.25q-0.5625 0 -1.015625 -0.234375q-0.4375 -0.25 -0.640625 -0.6875q-0.1875 -0.453125 -0.1875 -1.234375l0 -3.5l1.46875 0l0 2.546875q0 1.15625 0.078125 1.421875q0.078125 0.265625 0.28125 0.421875q0.21875 0.15625 0.546875 0.15625q0.375 0 0.671875 -0.203125q0.296875 -0.21875 0.40625 -0.515625q0.109375 -0.3125 0.109375 -1.484375l0 -2.34375l1.46875 0l0 5.53125l-1.359375 0zm5.399872 -5.53125l0 1.171875l-1.0 0l0 2.21875q0 0.6875 0.03125 0.796875q0.03125 0.109375 0.125 0.1875q0.109375 0.0625 0.25 0.0625q0.203125 0 0.59375 -0.140625l0.125 1.140625q-0.515625 0.21875 -1.15625 0.21875q-0.390625 0 -0.71875 -0.125q-0.3125 -0.140625 -0.46875 -0.34375q-0.140625 -0.21875 -0.203125 -0.578125q-0.046875 -0.25 -0.046875 -1.03125l0 -2.40625l-0.671875 0l0 -1.171875l0.671875 0l0 -1.09375l1.46875 -0.859375l0 1.953125l1.0 0zm0.1579895 7.640625l0 -0.953125l6.078125 0l0 0.953125l-6.078125 0zm11.848389 -2.109375l-1.359375 0l0 -0.8125q-0.328125 0.46875 -0.796875 0.703125q-0.453125 0.234375 -0.921875 0.234375q-0.953125 0 -1.640625 -0.765625q-0.671875 -0.765625 -0.671875 -2.140625q0 -1.40625 0.65625 -2.140625q0.671875 -0.734375 1.671875 -0.734375q0.921875 0 1.609375 0.78125l0 -2.75l1.453125 0l0 7.625zm-3.890625 -2.875q0 0.875 0.234375 1.265625q0.359375 0.578125 0.984375 0.578125q0.515625 0 0.859375 -0.421875q0.359375 -0.4375 0.359375 -1.28125q0 -0.953125 -0.34375 -1.375q-0.34375 -0.421875 -0.875 -0.421875q-0.515625 0 -0.875 0.421875q-0.34375 0.40625 -0.34375 1.234375zm6.431122 -0.96875l-1.328125 -0.234375q0.21875 -0.796875 0.765625 -1.1875q0.546875 -0.390625 1.625 -0.390625q0.984375 0 1.453125 0.234375q0.484375 0.234375 0.671875 0.59375q0.203125 0.359375 0.203125 1.3125l-0.015625 1.703125q0 0.71875 0.0625 1.078125q0.078125 0.34375 0.265625 0.734375l-1.4375 0q-0.0625 -0.140625 -0.140625 -0.4375q-0.046875 -0.125 -0.0625 -0.171875q-0.375 0.375 -0.796875 0.5625q-0.421875 0.171875 -0.90625 0.171875q-0.859375 0 -1.359375 -0.453125q-0.484375 -0.46875 -0.484375 -1.1875q0 -0.46875 0.21875 -0.828125q0.234375 -0.359375 0.640625 -0.546875q0.40625 -0.203125 1.15625 -0.359375q1.03125 -0.1875 1.421875 -0.359375l0 -0.140625q0 -0.421875 -0.21875 -0.59375q-0.203125 -0.1875 -0.78125 -0.1875q-0.375 0 -0.59375 0.15625q-0.21875 0.15625 -0.359375 0.53125zm1.953125 1.1875q-0.28125 0.09375 -0.890625 0.234375q-0.609375 0.125 -0.796875 0.25q-0.28125 0.203125 -0.28125 0.515625q0 0.296875 0.21875 0.53125q0.234375 0.21875 0.59375 0.21875q0.390625 0 0.75 -0.265625q0.265625 -0.1875 0.34375 -0.484375q0.0625 -0.1875 0.0625 -0.703125l0 -0.296875zm5.4108887 -2.875l0 1.171875l-1.0 0l0 2.21875q0 0.6875 0.03125 0.796875q0.03125 0.109375 0.125 0.1875q0.109375 0.0625 0.25 0.0625q0.203125 0 0.59375 -0.140625l0.125 1.140625q-0.515625 0.21875 -1.15625 0.21875q-0.390625 0 -0.71875 -0.125q-0.3125 -0.140625 -0.46875 -0.34375q-0.140625 -0.21875 -0.203125 -0.578125q-0.046875 -0.25 -0.046875 -1.03125l0 -2.40625l-0.671875 0l0 -1.171875l0.671875 0l0 -1.09375l1.46875 -0.859375l0 1.953125l1.0 0zm2.111084 1.6875l-1.328125 -0.234375q0.21875 -0.796875 0.765625 -1.1875q0.546875 -0.390625 1.625 -0.390625q0.984375 0 1.453125 0.234375q0.484375 0.234375 0.671875 0.59375q0.203125 0.359375 0.203125 1.3125l-0.015625 1.703125q0 0.71875 0.0625 1.078125q0.078125 0.34375 0.265625 0.734375l-1.4375 0q-0.0625 -0.140625 -0.140625 -0.4375q-0.046875 -0.125 -0.0625 -0.171875q-0.375 0.375 -0.796875 0.5625q-0.421875 0.171875 -0.90625 0.171875q-0.859375 0 -1.359375 -0.453125q-0.484375 -0.46875 -0.484375 -1.1875q0 -0.46875 0.21875 -0.828125q0.234375 -0.359375 0.640625 -0.546875q0.40625 -0.203125 1.15625 -0.359375q1.03125 -0.1875 1.421875 -0.359375l0 -0.140625q0 -0.421875 -0.21875 -0.59375q-0.203125 -0.1875 -0.78125 -0.1875q-0.375 0 -0.59375 0.15625q-0.21875 0.15625 -0.359375 0.53125zm1.953125 1.1875q-0.28125 0.09375 -0.890625 0.234375q-0.609375 0.125 -0.796875 0.25q-0.28125 0.203125 -0.28125 0.515625q0 0.296875 0.21875 0.53125q0.234375 0.21875 0.59375 0.21875q0.390625 0 0.75 -0.265625q0.265625 -0.1875 0.34375 -0.484375q0.0625 -0.1875 0.0625 -0.703125l0 -0.296875zm2.0202637 4.765625l0 -0.953125l6.078125 0l0 0.953125l-6.078125 0zm6.4421387 -4.953125q0 -0.71875 0.359375 -1.40625q0.359375 -0.6875 1.015625 -1.046875q0.671875 -0.359375 1.46875 -0.359375q1.265625 0 2.0625 0.828125q0.796875 0.8125 0.796875 2.046875q0 1.25 -0.8125 2.078125q-0.796875 0.828125 -2.03125 0.828125q-0.75 0 -1.453125 -0.34375q-0.6875 -0.34375 -1.046875 -1.0q-0.359375 -0.671875 -0.359375 -1.625zm1.5 0.078125q0 0.828125 0.390625 1.265625q0.390625 0.4375 0.96875 0.4375q0.5625 0 0.953125 -0.4375q0.390625 -0.4375 0.390625 -1.265625q0 -0.8125 -0.390625 -1.25q-0.390625 -0.4375 -0.953125 -0.4375q-0.578125 0 -0.96875 0.4375q-0.390625 0.4375 -0.390625 1.25z" fill-rule="nonzero"/><path fill="#000000" fill-opacity="0.0" d="m466.0863 186.58876l100.944885 0l0 32.314957l-100.944885 0z" fill-rule="evenodd"/><path fill="#000000" d="m475.50818 202.985q0 -0.71875 0.359375 -1.40625q0.359375 -0.6875 1.015625 -1.046875q0.671875 -0.359375 1.46875 -0.359375q1.265625 0 2.0625 0.828125q0.796875 0.8125 0.796875 2.046875q0 1.25 -0.8125 2.078125q-0.796875 0.828125 -2.03125 0.828125q-0.75 0 -1.453125 -0.34375q-0.6875 -0.34375 -1.046875 -1.0q-0.359375 -0.671875 -0.359375 -1.625zm1.5 0.078125q0 0.828125 0.390625 1.265625q0.390625 0.4375 0.96875 0.4375q0.5625 0 0.953125 -0.4375q0.390625 -0.4375 0.390625 -1.265625q0 -0.8125 -0.390625 -1.25q-0.390625 -0.4375 -0.953125 -0.4375q-0.578125 0 -0.96875 0.4375q-0.390625 0.4375 -0.390625 1.25zm8.993622 2.765625l0 -0.828125q-0.3125 0.4375 -0.8125 0.703125q-0.484375 0.25 -1.015625 0.25q-0.5625 0 -1.015625 -0.234375q-0.4375 -0.25 -0.640625 -0.6875q-0.1875 -0.453125 -0.1875 -1.234375l0 -3.5l1.46875 0l0 2.546875q0 1.15625 0.078125 1.421875q0.078125 0.265625 0.28125 0.421875q0.21875 0.15625 0.546875 0.15625q0.375 0 0.671875 -0.203125q0.296875 -0.21875 0.40625 -0.515625q0.109375 -0.3125 0.109375 -1.484375l0 -2.34375l1.46875 0l0 5.53125l-1.359375 0zm5.3999023 -5.53125l0 1.171875l-1.0 0l0 2.21875q0 0.6875 0.03125 0.796875q0.03125 0.109375 0.125 0.1875q0.109375 0.0625 0.25 0.0625q0.203125 0 0.59375 -0.140625l0.125 1.140625q-0.515625 0.21875 -1.15625 0.21875q-0.390625 0 -0.71875 -0.125q-0.3125 -0.140625 -0.46875 -0.34375q-0.140625 -0.21875 -0.203125 -0.578125q-0.046875 -0.25 -0.046875 -1.03125l0 -2.40625l-0.671875 0l0 -1.171875l0.671875 0l0 -1.09375l1.46875 -0.859375l0 1.953125l1.0 0zm0.1579895 7.640625l0 -0.953125l6.078125 0l0 0.953125l-6.078125 0zm8.192108 -2.109375l-1.46875 0l0 -5.53125l1.359375 0l0 0.796875q0.34375 -0.5625 0.625 -0.734375q0.28125 -0.1875 0.625 -0.1875q0.5 0 0.96875 0.28125l-0.453125 1.28125q-0.375 -0.25 -0.6875 -0.25q-0.3125 0 -0.53125 0.171875q-0.203125 0.171875 -0.328125 0.625q-0.109375 0.4375 -0.109375 1.84375l0 1.703125zm5.943878 -1.765625l1.453125 0.25q-0.28125 0.796875 -0.890625 1.21875q-0.609375 0.421875 -1.515625 0.421875q-1.4375 0 -2.125 -0.9375q-0.546875 -0.765625 -0.546875 -1.90625q0 -1.375 0.71875 -2.15625q0.71875 -0.78125 1.8125 -0.78125q1.234375 0 1.9375 0.828125q0.71875 0.8125 0.6875 2.484375l-3.65625 0q0.015625 0.65625 0.34375 1.015625q0.34375 0.359375 0.84375 0.359375q0.34375 0 0.578125 -0.1875q0.234375 -0.1875 0.359375 -0.609375zm0.078125 -1.46875q-0.015625 -0.640625 -0.328125 -0.96875q-0.3125 -0.328125 -0.765625 -0.328125q-0.46875 0 -0.78125 0.34375q-0.3125 0.359375 -0.3125 0.953125l2.1875 0zm3.7389832 -0.609375l-1.328125 -0.234375q0.21875 -0.796875 0.765625 -1.1875q0.546875 -0.390625 1.625 -0.390625q0.984375 0 1.4531555 0.234375q0.484375 0.234375 0.671875 0.59375q0.203125 0.359375 0.203125 1.3125l-0.015625 1.703125q0 0.71875 0.0625 1.078125q0.078125 0.34375 0.265625 0.734375l-1.4375305 0q-0.0625 -0.140625 -0.140625 -0.4375q-0.046875 -0.125 -0.0625 -0.171875q-0.375 0.375 -0.796875 0.5625q-0.421875 0.171875 -0.90625 0.171875q-0.859375 0 -1.359375 -0.453125q-0.484375 -0.46875 -0.484375 -1.1875q0 -0.46875 0.21875 -0.828125q0.234375 -0.359375 0.640625 -0.546875q0.40625 -0.203125 1.15625 -0.359375q1.03125 -0.1875 1.421875 -0.359375l0 -0.140625q0 -0.421875 -0.21875 -0.59375q-0.203125 -0.1875 -0.78125 -0.1875q-0.375 0 -0.59375 0.15625q-0.21875 0.15625 -0.359375 0.53125zm1.953125 1.1875q-0.28125 0.09375 -0.890625 0.234375q-0.609375 0.125 -0.796875 0.25q-0.28125 0.203125 -0.28125 0.515625q0 0.296875 0.21875 0.53125q0.234375 0.21875 0.59375 0.21875q0.390625 0 0.75 -0.265625q0.265625 -0.1875 0.34375 -0.484375q0.0625 -0.1875 0.0625 -0.703125l0 -0.296875zm7.942108 2.65625l-1.359375 0l0 -0.8125q-0.328125 0.46875 -0.796875 0.703125q-0.453125 0.234375 -0.921875 0.234375q-0.953125 0 -1.640625 -0.765625q-0.671875 -0.765625 -0.671875 -2.140625q0 -1.40625 0.65625 -2.140625q0.671875 -0.734375 1.671875 -0.734375q0.921875 0 1.609375 0.78125l0 -2.75l1.453125 0l0 7.625zm-3.890625 -2.875q0 0.875 0.234375 1.265625q0.359375 0.578125 0.984375 0.578125q0.515625 0 0.859375 -0.421875q0.359375 -0.4375 0.359375 -1.28125q0 -0.953125 -0.34375 -1.375q-0.34375 -0.421875 -0.875 -0.421875q-0.515625 0 -0.875 0.421875q-0.34375 0.40625 -0.34375 1.234375zm4.6499023 -2.65625l1.546875 0l1.328125 3.921875l1.28125 -3.921875l1.515625 0l-1.953125 5.328125l-0.34375 0.953125q-0.1875 0.484375 -0.375 0.734375q-0.171875 0.265625 -0.390625 0.421875q-0.21875 0.15625 -0.5625 0.25q-0.328125 0.09375 -0.734375 0.09375q-0.421875 0 -0.828125 -0.09375l-0.140625 -1.140625q0.34375 0.0625 0.625 0.0625q0.515625 0 0.75 -0.296875q0.25 -0.296875 0.375 -0.765625l-2.09375 -5.546875zm5.7546387 7.640625l0 -0.953125l6.078125 0l0 0.953125l-6.078125 0zm6.7858887 -8.390625l0 -1.34375l1.46875 0l0 1.34375l-1.46875 0zm0 6.28125l0 -5.53125l1.46875 0l0 5.53125l-1.46875 0z" fill-rule="nonzero"/><path fill="#000000" fill-opacity="0.0" d="m243.72826 5.1783185l100.94487 0l0 32.31496l-100.94487 0z" fill-rule="evenodd"/><path fill="#000000" d="m252.97826 22.840193l1.46875 -0.21875q0.09375 0.421875 0.375 0.640625q0.296875 0.21875 0.796875 0.21875q0.57810974 0 0.85935974 -0.203125q0.1875 -0.140625 0.1875 -0.390625q0 -0.171875 -0.09375 -0.28125q-0.109375 -0.09375 -0.5 -0.1875q-1.7656097 -0.390625 -2.2343597 -0.703125q-0.65625 -0.453125 -0.65625 -1.25q0 -0.71875 0.5625 -1.203125q0.578125 -0.5 1.765625 -0.5q1.1249847 0 1.6718597 0.375q0.5625 0.375 0.765625 1.09375l-1.375 0.25q-0.09375 -0.3125 -0.34375 -0.484375q-0.23435974 -0.171875 -0.70310974 -0.171875q-0.5625 0 -0.8125 0.15625q-0.171875 0.109375 -0.171875 0.296875q0 0.15625 0.140625 0.265625q0.203125 0.140625 1.3593597 0.40625q1.171875 0.265625 1.640625 0.65625q0.453125 0.390625 0.453125 1.078125q0 0.765625 -0.640625 1.3125q-0.625 0.546875 -1.8749847 0.546875q-1.125 0 -1.78125 -0.453125q-0.65625 -0.46875 -0.859375 -1.25zm6.3952484 1.578125l0 -7.625l1.453125 0l0 4.046875l1.71875 -1.953125l1.796875 0l-1.890625 2.03125l2.03125 3.5l-1.578125 0l-1.390625 -2.484375l-0.6875 0.71875l0 1.765625l-1.453125 0zm5.973358 -6.28125l0 -1.34375l1.46875 0l0 1.34375l-1.46875 0zm0 6.28125l0 -5.53125l1.46875 0l0 5.53125l-1.46875 0zm8.023163 0l-1.359375 0l0 -0.8125q-0.328125 0.46875 -0.796875 0.703125q-0.453125 0.234375 -0.921875 0.234375q-0.953125 0 -1.640625 -0.765625q-0.671875 -0.765625 -0.671875 -2.140625q0 -1.40625 0.65625 -2.140625q0.671875 -0.734375 1.671875 -0.734375q0.921875 0 1.609375 0.78125l0 -2.75l1.453125 0l0 7.625zm-3.890625 -2.875q0 0.875 0.234375 1.265625q0.359375 0.578125 0.984375 0.578125q0.515625 0 0.859375 -0.421875q0.359375 -0.4375 0.359375 -1.28125q0 -0.953125 -0.34375 -1.375q-0.34375 -0.421875 -0.875 -0.421875q-0.515625 0 -0.875 0.421875q-0.34375 0.40625 -0.34375 1.234375zm4.477997 4.984375l0 -0.953125l6.078125 0l0 0.953125l-6.078125 0zm6.7233887 -2.109375l0 -7.625l1.46875 0l0 2.75q0.671875 -0.78125 1.59375 -0.78125q1.015625 0 1.671875 0.734375q0.65625 0.734375 0.65625 2.109375q0 1.40625 -0.671875 2.171875q-0.671875 0.765625 -1.640625 0.765625q-0.46875 0 -0.9375 -0.234375q-0.453125 -0.234375 -0.78125 -0.703125l0 0.8125l-1.359375 0zm1.453125 -2.875q0 0.84375 0.265625 1.265625q0.375 0.578125 1.015625 0.578125q0.484375 0 0.8125 -0.40625q0.34375 -0.421875 0.34375 -1.3125q0 -0.9375 -0.34375 -1.359375q-0.34375 -0.421875 -0.875 -0.421875q-0.53125 0 -0.875 0.40625q-0.34375 0.40625 -0.34375 1.25zm8.759247 2.875l0 -0.828125q-0.3125 0.4375 -0.8125 0.703125q-0.484375 0.25 -1.015625 0.25q-0.5625 0 -1.015625 -0.234375q-0.4375 -0.25 -0.640625 -0.6875q-0.1875 -0.453125 -0.1875 -1.234375l0 -3.5l1.46875 0l0 2.546875q0 1.15625 0.078125 1.421875q0.078125 0.265625 0.28125 0.421875q0.21875 0.15625 0.546875 0.15625q0.375 0 0.671875 -0.203125q0.296875 -0.21875 0.40625 -0.515625q0.109375 -0.3125 0.109375 -1.484375l0 -2.34375l1.46875 0l0 5.53125l-1.359375 0zm2.2280273 -5.53125l0.8125 0l0 -0.40625q0 -0.703125 0.140625 -1.046875q0.15625 -0.34375 0.546875 -0.5625q0.40625 -0.21875 1.015625 -0.21875q0.625 0 1.21875 0.1875l-0.203125 1.03125q-0.34375 -0.09375 -0.671875 -0.09375q-0.3125 0 -0.453125 0.15625q-0.125 0.140625 -0.125 0.5625l0 0.390625l1.078125 0l0 1.15625l-1.078125 0l0 4.375l-1.46875 0l0 -4.375l-0.8125 0l0 -1.15625zm3.5486145 0l0.8125 0l0 -0.40625q0 -0.703125 0.140625 -1.046875q0.15625 -0.34375 0.546875 -0.5625q0.40625 -0.21875 1.015625 -0.21875q0.625 0 1.21875 0.1875l-0.203125 1.03125q-0.34375 -0.09375 -0.671875 -0.09375q-0.3125 0 -0.453125 0.15625q-0.125 0.140625 -0.125 0.5625l0 0.390625l1.078125 0l0 1.15625l-1.078125 0l0 4.375l-1.46875 0l0 -4.375l-0.8125 0l0 -1.15625zm7.3923645 3.765625l1.453125 0.25q-0.28125 0.796875 -0.890625 1.21875q-0.609375 0.421875 -1.515625 0.421875q-1.4375 0 -2.125 -0.9375q-0.546875 -0.765625 -0.546875 -1.90625q0 -1.375 0.71875 -2.15625q0.71875 -0.78125 1.8125 -0.78125q1.234375 0 1.9375 0.828125q0.71875 0.8125 0.6875 2.484375l-3.65625 0q0.015625 0.65625 0.34375 1.015625q0.34375 0.359375 0.84375 0.359375q0.34375 0 0.578125 -0.1875q0.234375 -0.1875 0.359375 -0.609375zm0.078125 -1.46875q-0.015625 -0.640625 -0.328125 -0.96875q-0.3125 -0.328125 -0.765625 -0.328125q-0.46875 0 -0.78125 0.34375q-0.3125 0.359375 -0.3125 0.953125l2.1875 0zm4.051483 3.234375l-1.46875 0l0 -5.53125l1.359375 0l0 0.796875q0.34375 -0.5625 0.625 -0.734375q0.28125 -0.1875 0.625 -0.1875q0.5 0 0.96875 0.28125l-0.453125 1.28125q-0.375 -0.25 -0.6875 -0.25q-0.3125 0 -0.53125 0.171875q-0.203125 0.171875 -0.328125 0.625q-0.109375 0.4375 -0.109375 1.84375l0 1.703125zm2.1521912 0l0 -1.46875l1.46875 0l0 1.46875l-1.46875 0zm2.4450378 -1.578125l1.46875 -0.21875q0.09375 0.421875 0.375 0.640625q0.296875 0.21875 0.796875 0.21875q0.578125 0 0.859375 -0.203125q0.1875 -0.140625 0.1875 -0.390625q0 -0.171875 -0.09375 -0.28125q-0.109375 -0.09375 -0.5 -0.1875q-1.765625 -0.390625 -2.234375 -0.703125q-0.65625 -0.453125 -0.65625 -1.25q0 -0.71875 0.5625 -1.203125q0.578125 -0.5 1.765625 -0.5q1.125 0 1.671875 0.375q0.5625 0.375 0.765625 1.09375l-1.375 0.25q-0.09375 -0.3125 -0.34375 -0.484375q-0.234375 -0.171875 -0.703125 -0.171875q-0.5625 0 -0.8125 0.15625q-0.171875 0.109375 -0.171875 0.296875q0 0.15625 0.140625 0.265625q0.203125 0.140625 1.359375 0.40625q1.171875 0.265625 1.640625 0.65625q0.453125 0.390625 0.453125 1.078125q0 0.765625 -0.640625 1.3125q-0.625 0.546875 -1.875 0.546875q-1.125 0 -1.78125 -0.453125q-0.65625 -0.46875 -0.859375 -1.25zm7.957733 1.578125l-2.21875 -5.53125l1.53125 0l1.046875 2.828125l0.296875 0.9375q0.109375 -0.359375 0.140625 -0.46875q0.078125 -0.234375 0.15625 -0.46875l1.0625 -2.828125l1.5 0l-2.203125 5.53125l-1.3125 0z" fill-rule="nonzero"/><path fill="#ffffff" d="m204.66191 201.90683l-26.582672 0l0 36.283463l26.582672 0z" fill-rule="evenodd"/><path stroke="#000000" stroke-width="1.0" stroke-linejoin="round" stroke-linecap="butt" d="m204.66191 201.90683l-26.582672 0l0 36.283463l26.582672 0z" fill-rule="evenodd"/><path fill="#ffffff" d="m199.35986 219.49556l5.102356 5.1653595l0 -10.330704z" fill-rule="evenodd"/><path stroke="#000000" stroke-width="1.0" stroke-linejoin="round" stroke-linecap="butt" d="m199.35986 219.49556l5.102356 5.1653595l0 -10.330704z" fill-rule="evenodd"/><path fill="#000000" fill-opacity="0.0" d="m170.93045 206.31758l21.51181 0l0 27.46457l-21.51181 0z" fill-rule="evenodd"/><path fill="#000000" d="m182.66483 223.03009l0 -1.734375q-0.1875 0.234375 -0.453125 0.375q-0.265625 0.125 -0.5625 0.125q-0.59375 0 -0.96875 -0.4375q-0.453125 -0.515625 -0.453125 -1.40625q0 -0.828125 0.421875 -1.296875q0.421875 -0.46875 1.046875 -0.46875q0.34375 0 0.59375 0.15625q0.25 0.140625 0.453125 0.4375l0 -0.515625l0.828125 0l0 4.765625l-0.90625 0zm0.03125 -3.078125q0 -0.53125 -0.21875 -0.78125q-0.21875 -0.265625 -0.546875 -0.265625q-0.328125 0 -0.546875 0.265625q-0.21875 0.265625 -0.21875 0.828125q0 0.578125 0.203125 0.828125q0.21875 0.25 0.53125 0.25q0.3125 0 0.546875 -0.28125q0.25 -0.28125 0.25 -0.84375z" fill-rule="nonzero"/><path fill="#000000" fill-opacity="0.0" d="m188.79265 195.35564l20.18898 0l0 27.46457l-20.18898 0z" fill-rule="evenodd"/><path fill="#000000" d="m201.43327 210.75565l-0.84375 0l0 -0.5q-0.21875 0.28125 -0.5 0.4375q-0.28125 0.140625 -0.578125 0.140625q-0.59375 0 -1.03125 -0.46875q-0.421875 -0.484375 -0.421875 -1.34375q0 -0.875 0.40625 -1.328125q0.421875 -0.46875 1.0625 -0.46875q0.578125 0 1.0 0.484375l0 -1.71875l0.90625 0l0 4.765625zm-2.4375 -1.796875q0 0.546875 0.15625 0.796875q0.21875 0.359375 0.609375 0.359375q0.328125 0 0.546875 -0.265625q0.21875 -0.28125 0.21875 -0.8125q0 -0.59375 -0.21875 -0.84375q-0.21875 -0.265625 -0.546875 -0.265625q-0.328125 0 -0.546875 0.265625q-0.21875 0.25 -0.21875 0.765625z" fill-rule="nonzero"/><path fill="#000000" fill-opacity="0.0" d="m290.2966 169.3084l14.238831 0l0 -35.041992l34.7218 0" fill-rule="evenodd"/><path stroke="#000000" stroke-width="1.0" stroke-linejoin="round" stroke-linecap="butt" d="m290.2966 169.3084l14.238831 0l0 -35.041992l34.7218 0" fill-rule="evenodd"/><path fill="#000000" fill-opacity="0.0" d="m126.19948 133.42339l4.5374756 0l43.957825 0l0 -37.512627l164.32341 0" fill-rule="evenodd"/><path stroke="#000000" stroke-width="1.0" stroke-linejoin="round" stroke-linecap="butt" d="m126.19948 133.42339l4.5374756 0l43.957825 0l0 -37.512627l164.32341 0" fill-rule="evenodd"/><path fill="#000000" fill-opacity="0.0" d="m294.98425 208.7917l-90.834656 0" fill-rule="evenodd"/><path stroke="#000000" stroke-width="1.0" stroke-linejoin="round" stroke-linecap="butt" d="m294.98425 208.7917l-90.834656 0" fill-rule="evenodd"/><path fill="#000000" fill-opacity="0.0" d="m125.86089 218.91507l51.9685 0" fill-rule="evenodd"/><path stroke="#000000" stroke-width="1.0" stroke-linejoin="round" stroke-linecap="butt" d="m125.86089 218.91507l51.9685 0" fill-rule="evenodd"/><path fill="#ffffff" d="m399.43558 42.293175l25.606323 0l0 34.551186l-25.606323 0z" fill-rule="evenodd"/><path stroke="#000000" stroke-width="1.0" stroke-linejoin="round" stroke-linecap="butt" stroke-dasharray="8.0,3.0" d="m399.43558 42.293175l25.606323 0l0 34.551186l-25.606323 0z" fill-rule="evenodd"/><path fill="#ffffff" d="m404.5414 59.030083l-4.913391 4.9133835l0 -9.826771z" fill-rule="evenodd"/><path stroke="#000000" stroke-width="1.0" stroke-linejoin="round" stroke-linecap="butt" d="m404.5414 59.030083l-4.913391 4.9133835l0 -9.826771z" fill-rule="evenodd"/><path fill="#000000" fill-opacity="0.0" d="m366.5171 20.591864l94.77167 0l0 25.858267l-94.77167 0z" fill-rule="evenodd"/><path fill="#000000" d="m384.76254 34.711864l0 -3.812502l1.6875 0q0.515625 0 0.78125 0.109375q0.265625 0.09375 0.421875 0.359375q0.15625 0.25 0.15625 0.578125q0 0.3906269 -0.265625 0.6718769q-0.265625 0.28125 -0.8125 0.359375q0.203125 0.09375 0.3125 0.1875q0.21875 0.203125 0.40625 0.515625l0.671875 1.03125l-0.640625 0l-0.5 -0.796875q-0.21875 -0.34375 -0.359375 -0.515625q-0.140625 -0.1875 -0.265625 -0.25q-0.109375 -0.078125 -0.21875 -0.109375q-0.09375 -0.015625 -0.28125 -0.015625l-0.59375 0l0 1.6875l-0.5 0zm0.5 -2.125l1.09375 0q0.34375 0 0.53125 -0.078125q0.203125 -0.078125 0.296875 -0.234375q0.109375 -0.15625 0.109375 -0.3281269q0 -0.28125 -0.203125 -0.453125q-0.1875 -0.171875 -0.625 -0.171875l-1.203125 0l0 1.2656269zm3.3478088 2.125l0 -3.812502l2.75 0l0 0.453125l-2.25 0l0 1.1562519l2.109375 0l0 0.453125l-2.109375 0l0 1.296875l2.34375 0l0 0.453125l-2.84375 0zm5.335083 -1.5l0 -0.4375l1.609375 -0.015625l0 1.421875q-0.375 0.296875 -0.765625 0.453125q-0.390625 0.140625 -0.8125 0.140625q-0.5625 0 -1.03125 -0.234375q-0.453125 -0.25 -0.6875 -0.703125q-0.234375 -0.453125 -0.234375 -1.015625q0 -0.5625 0.234375 -1.0312519q0.234375 -0.484375 0.671875 -0.71875q0.4375 -0.234375 1.0 -0.234375q0.421875 0 0.75 0.140625q0.34375 0.125 0.53125 0.375q0.1875 0.234375 0.28125 0.609375l-0.453125 0.1250019q-0.078125 -0.2812519 -0.21875 -0.4531269q-0.125 -0.171875 -0.359375 -0.265625q-0.234375 -0.109375 -0.515625 -0.109375q-0.359375 0 -0.609375 0.109375q-0.25 0.109375 -0.40625 0.28125q-0.15625 0.171875 -0.234375 0.3750019q-0.15625 0.359375 -0.15625 0.765625q0 0.515625 0.171875 0.859375q0.1875 0.34375 0.515625 0.515625q0.34375 0.15625 0.71875 0.15625q0.328125 0 0.640625 -0.125q0.3125 -0.125 0.46875 -0.265625l0 -0.71875l-1.109375 0zm1.8631287 2.5625l0 -0.34375l3.09375 0l0 0.34375l-3.09375 0zm3.2913818 -2.921875q0 -0.9531269 0.515625 -1.4843769q0.515625 -0.53125 1.3125 -0.53125q0.53125 0 0.953125 0.25q0.421875 0.25 0.640625 0.703125q0.234375 0.4531269 0.234375 1.0156269q0 0.578125 -0.234375 1.046875q-0.234375 0.453125 -0.671875 0.6875q-0.421875 0.234375 -0.921875 0.234375q-0.53125 0 -0.96875 -0.25q-0.421875 -0.265625 -0.640625 -0.71875q-0.21875 -0.453125 -0.21875 -0.953125zm0.53125 0.015625q0 0.6875 0.359375 1.09375q0.375 0.390625 0.9375 0.390625q0.578125 0 0.9375 -0.40625q0.375 -0.40625 0.375 -1.140625q0 -0.46875 -0.171875 -0.8125019q-0.15625 -0.34375 -0.453125 -0.53125q-0.296875 -0.203125 -0.671875 -0.203125q-0.546875 0 -0.9375 0.375q-0.375 0.3750019 -0.375 1.2343769zm6.269409 -1.9687519l0.515625 0l0 2.203127q0 0.578125 -0.140625 0.921875q-0.125 0.328125 -0.46875 0.546875q-0.328125 0.203125 -0.890625 0.203125q-0.53125 0 -0.875 -0.171875q-0.34375 -0.1875 -0.484375 -0.53125q-0.140625 -0.359375 -0.140625 -0.96875l0 -2.203127l0.5 0l0 2.203127q0 0.5 0.09375 0.734375q0.09375 0.234375 0.3125 0.359375q0.234375 0.125 0.5625 0.125q0.546875 0 0.78125 -0.25q0.234375 -0.25 0.234375 -0.96875l0 -2.203127zm2.3165588 3.812502l0 -3.359377l-1.25 0l0 -0.453125l3.015625 0l0 0.453125l-1.25 0l0 3.359377l-0.515625 0zm2.2858887 0l0 -3.812502l1.4375 0q0.390625 0 0.59375 0.03125q0.265625 0.046875 0.453125 0.1875q0.203125 0.125 0.3125 0.359375q0.125 0.234375 0.125 0.5312519q0 0.484375 -0.3125 0.828125q-0.3125 0.328125 -1.125 0.328125l-0.96875 0l0 1.546875l-0.515625 0zm0.515625 -2.0l0.984375 0q0.484375 0 0.6875 -0.171875q0.203125 -0.1875 0.203125 -0.515625q0 -0.2500019 -0.125 -0.4218769q-0.109375 -0.171875 -0.3125 -0.21875q-0.125 -0.03125 -0.46875 -0.03125l-0.96875 0l0 1.3593769zm5.5381775 -1.8125019l0.515625 0l0 2.203127q0 0.578125 -0.140625 0.921875q-0.125 0.328125 -0.46875 0.546875q-0.328125 0.203125 -0.890625 0.203125q-0.53125 0 -0.875 -0.171875q-0.34375 -0.1875 -0.484375 -0.53125q-0.140625 -0.359375 -0.140625 -0.96875l0 -2.203127l0.5 0l0 2.203127q0 0.5 0.09375 0.734375q0.09375 0.234375 0.3125 0.359375q0.234375 0.125 0.5625 0.125q0.546875 0 0.78125 -0.25q0.234375 -0.25 0.234375 -0.96875l0 -2.203127zm2.3165588 3.812502l0 -3.359377l-1.25 0l0 -0.453125l3.015625 0l0 0.453125l-1.25 0l0 3.359377l-0.515625 0zm6.076111 -2.25l-2.515625 0l0 -0.421875l2.515625 0l0 0.421875zm0 1.171875l-2.515625 0l0 -0.4375l2.515625 0l0 0.4375zm3.1115417 -1.171875l-2.515625 0l0 -0.421875l2.515625 0l0 0.421875zm0 1.171875l-2.515625 0l0 -0.4375l2.515625 0l0 0.4375zm1.9981384 -0.796875q0 -0.6875 0.140625 -1.0937519q0.140625 -0.40625 0.40625 -0.625q0.28125 -0.234375 0.703125 -0.234375q0.296875 0 0.53125 0.125q0.234375 0.125 0.375 0.359375q0.15625 0.234375 0.234375 0.5625q0.09375 0.3281269 0.09375 0.9062519q0 0.671875 -0.140625 1.078125q-0.125 0.40625 -0.40625 0.640625q-0.265625 0.21875 -0.6875 0.21875q-0.5625 0 -0.875 -0.390625q-0.375 -0.484375 -0.375 -1.546875zm0.484375 0q0 0.9375 0.21875 1.25q0.21875 0.3125 0.546875 0.3125q0.3125 0 0.53125 -0.3125q0.234375 -0.3125 0.234375 -1.25q0 -0.9531269 -0.234375 -1.2500019q-0.21875 -0.3125 -0.546875 -0.3125q-0.3125 0 -0.515625 0.265625q-0.234375 0.359375 -0.234375 1.2968769zm3.912323 0.5q0 -0.78125 0.4375 -1.140625q0.34375 -0.3125019 0.859375 -0.3125019q0.578125 0 0.9375 0.3750019q0.359375 0.375 0.359375 1.03125q0 0.53125 -0.15625 0.84375q-0.15625 0.296875 -0.46875 0.46875q-0.3125 0.171875 -0.671875 0.171875q-0.578125 0 -0.9375 -0.375q-0.359375 -0.375 -0.359375 -1.0625zm0.484375 0q0 0.53125 0.234375 0.796875q0.234375 0.25 0.578125 0.25q0.359375 0 0.578125 -0.265625q0.234375 -0.265625 0.234375 -0.796875q0 -0.515625 -0.234375 -0.78125q-0.234375 -0.265625 -0.578125 -0.265625q-0.34375 0 -0.578125 0.265625q-0.234375 0.265625 -0.234375 0.796875zm2.6507568 1.375l0 -2.765627l0.421875 0l0 0.4218769q0.15625 -0.296875 0.296875 -0.3906269q0.140625 -0.09375 0.296875 -0.09375q0.25 0 0.484375 0.1562519l-0.15625 0.4375q-0.171875 -0.109375 -0.34375 -0.109375q-0.15625 0 -0.28125 0.09375q-0.125 0.09375 -0.171875 0.25q-0.078125 0.25 -0.078125 0.546875l0 1.453125l-0.46875 0zm4.8952637 0l-0.46875 0l0 -2.984377q-0.171875 0.15625 -0.453125 0.3281269q-0.265625 0.15625 -0.484375 0.234375l0 -0.4531269q0.390625 -0.1875 0.6875 -0.4375q0.296875 -0.265625 0.421875 -0.515625l0.296875 0l0 3.828127z" fill-rule="nonzero"/><path fill="#000000" fill-opacity="0.0" d="m380.32285 69.73753l61.826782 0l0 27.46457l-61.826782 0z" fill-rule="evenodd"/><path fill="#000000" d="m396.5062 85.137535l-0.5625 -3.453125l0.5625 0l0.296875 1.90625q0.046875 0.3125 0.125 1.015625q0.171875 -0.375 0.4375 -0.84375l1.140625 -2.078125l0.625 0l-1.96875 3.453125l-0.65625 0zm4.78125 -0.421875q-0.296875 0.25 -0.59375 0.375q-0.28125 0.125 -0.59375 0.125q-0.484375 0 -0.78125 -0.28125q-0.28125 -0.28125 -0.28125 -0.71875q0 -0.296875 0.125 -0.515625q0.140625 -0.21875 0.34375 -0.34375q0.21875 -0.140625 0.546875 -0.203125q0.1875 -0.046875 0.734375 -0.0625q0.5625 -0.03125 0.8125 -0.125q0.0625 -0.234375 0.0625 -0.390625q0 -0.203125 -0.15625 -0.328125q-0.203125 -0.15625 -0.59375 -0.15625q-0.375 0 -0.609375 0.171875q-0.234375 0.15625 -0.34375 0.453125l-0.59375 -0.046875q0.1875 -0.515625 0.578125 -0.78125q0.40625 -0.28125 1.0 -0.28125q0.640625 0 1.015625 0.3125q0.28125 0.21875 0.28125 0.59375q0 0.265625 -0.078125 0.625l-0.1875 0.859375q-0.09375 0.421875 -0.09375 0.671875q0 0.15625 0.078125 0.46875l-0.609375 0q-0.046875 -0.171875 -0.0625 -0.421875zm0.21875 -1.328125q-0.125 0.046875 -0.265625 0.078125q-0.140625 0.03125 -0.46875 0.046875q-0.515625 0.046875 -0.734375 0.125q-0.203125 0.0625 -0.3125 0.21875q-0.109375 0.15625 -0.109375 0.34375q0 0.234375 0.171875 0.40625q0.171875 0.15625 0.484375 0.15625q0.296875 0 0.5625 -0.15625q0.265625 -0.15625 0.421875 -0.421875q0.15625 -0.28125 0.25 -0.796875zm1.1081543 1.75l1.0 -4.765625l0.59375 0l-1.0 4.765625l-0.59375 0zm2.3694153 -4.09375l0.140625 -0.671875l0.578125 0l-0.140625 0.671875l-0.578125 0zm-0.859375 4.09375l0.71875 -3.453125l0.59375 0l-0.734375 3.453125l-0.578125 0zm3.8225708 -0.5q-0.5 0.578125 -1.046875 0.578125q-0.5 0 -0.828125 -0.359375q-0.328125 -0.359375 -0.328125 -1.046875q0 -0.640625 0.265625 -1.15625q0.265625 -0.53125 0.640625 -0.78125q0.390625 -0.265625 0.78125 -0.265625q0.640625 0 0.96875 0.625l0.390625 -1.859375l0.59375 0l-1.0 4.765625l-0.546875 0l0.109375 -0.5zm-1.609375 -0.953125q0 0.375 0.0625 0.578125q0.078125 0.203125 0.25 0.34375q0.171875 0.140625 0.421875 0.140625q0.390625 0 0.71875 -0.421875q0.4375 -0.546875 0.4375 -1.359375q0 -0.40625 -0.21875 -0.640625q-0.21875 -0.234375 -0.53125 -0.234375q-0.21875 0 -0.390625 0.09375q-0.171875 0.09375 -0.34375 0.328125q-0.171875 0.21875 -0.296875 0.578125q-0.109375 0.34375 -0.109375 0.59375zm4.9262085 0.015625l0.125 -0.578125l1.78125 0l-0.109375 0.578125l-1.796875 0zm5.3471375 0.953125l-0.09375 0.484375q-0.21875 0.0625 -0.40625 0.0625q-0.359375 0 -0.5625 -0.171875q-0.15625 -0.140625 -0.15625 -0.359375q0 -0.109375 0.078125 -0.515625l0.421875 -2.015625l-0.46875 0l0.09375 -0.453125l0.46875 0l0.1875 -0.84375l0.671875 -0.40625l-0.265625 1.25l0.578125 0l-0.09375 0.453125l-0.578125 0l-0.40625 1.90625q-0.078125 0.375 -0.078125 0.4375q0 0.109375 0.0625 0.171875q0.0625 0.046875 0.203125 0.046875q0.1875 0 0.34375 -0.046875zm0.25558472 1.8125l0.03125 -0.546875q0.1875 0.046875 0.359375 0.046875q0.171875 0 0.28125 -0.078125q0.15625 -0.109375 0.3125 -0.40625l0.203125 -0.328125l-0.578125 -3.46875l0.578125 0l0.25 1.75q0.078125 0.515625 0.140625 1.03125l1.546875 -2.78125l0.609375 0l-2.203125 3.90625q-0.3125 0.578125 -0.5625 0.765625q-0.25 0.1875 -0.5625 0.1875q-0.21875 0 -0.40625 -0.078125zm3.265625 0l0.984375 -4.78125l0.546875 0l-0.09375 0.484375q0.296875 -0.3125 0.53125 -0.4375q0.25 -0.125 0.515625 -0.125q0.484375 0 0.8125 0.359375q0.328125 0.359375 0.328125 1.03125q0 0.53125 -0.1875 0.984375q-0.171875 0.4375 -0.4375 0.71875q-0.25 0.265625 -0.515625 0.390625q-0.265625 0.125 -0.546875 0.125q-0.625 0 -0.96875 -0.625l-0.390625 1.875l-0.578125 0zm1.15625 -2.734375q0 0.375 0.0625 0.53125q0.078125 0.21875 0.265625 0.34375q0.1875 0.125 0.421875 0.125q0.515625 0 0.828125 -0.5625q0.3125 -0.578125 0.3125 -1.171875q0 -0.4375 -0.21875 -0.671875q-0.203125 -0.25 -0.515625 -0.25q-0.234375 0 -0.421875 0.125q-0.1875 0.125 -0.359375 0.359375q-0.15625 0.234375 -0.265625 0.578125q-0.109375 0.328125 -0.109375 0.59375zm5.358124 0.234375l0.578125 0.0625q-0.125 0.421875 -0.578125 0.8125q-0.4375 0.375 -1.046875 0.375q-0.390625 0 -0.71875 -0.171875q-0.3125 -0.1875 -0.484375 -0.515625q-0.15625 -0.34375 -0.15625 -0.78125q0 -0.5625 0.265625 -1.09375q0.265625 -0.53125 0.671875 -0.78125q0.421875 -0.265625 0.90625 -0.265625q0.609375 0 0.984375 0.390625q0.375 0.375 0.375 1.046875q0 0.25 -0.046875 0.515625l-2.546875 0q-0.015625 0.09375 -0.015625 0.1875q0 0.484375 0.21875 0.734375q0.234375 0.25 0.546875 0.25q0.3125 0 0.59375 -0.1875q0.296875 -0.203125 0.453125 -0.578125zm-1.703125 -0.859375l1.9375 0q0 -0.09375 0 -0.125q0 -0.4375 -0.21875 -0.671875q-0.21875 -0.25 -0.5625 -0.25q-0.390625 0 -0.703125 0.265625q-0.296875 0.265625 -0.453125 0.78125zm2.2331543 3.359375l0 -0.421875l3.875 0l0 0.421875l-3.875 0zm5.717499 -1.8125l-0.09375 0.484375q-0.21875 0.0625 -0.40625 0.0625q-0.359375 0 -0.5625 -0.171875q-0.15625 -0.140625 -0.15625 -0.359375q0 -0.109375 0.078125 -0.515625l0.421875 -2.015625l-0.46875 0l0.09375 -0.453125l0.46875 0l0.1875 -0.84375l0.671875 -0.40625l-0.265625 1.25l0.578125 0l-0.09375 0.453125l-0.578125 0l-0.40625 1.90625q-0.078125 0.375 -0.078125 0.4375q0 0.109375 0.0625 0.171875q0.0625 0.046875 0.203125 0.046875q0.1875 0 0.34375 -0.046875z" fill-rule="nonzero"/><path fill="#000000" fill-opacity="0.0" d="m174.7454 133.33333l27.496063 0l0 -11.181099l27.496063 0" fill-rule="evenodd"/><path stroke="#000000" stroke-width="1.0" stroke-linejoin="round" stroke-linecap="butt" d="m174.7454 133.33333l27.496063 0l0 -11.181099l27.496063 0" fill-rule="evenodd"/><path fill="#000000" fill-opacity="0.0" d="m161.60104 219.29396l0 31.868774l0 9.889755l183.95538 0l0 -119.779526l-3.0761108 0l2.979004 0.79789734" fill-rule="evenodd"/><path stroke="#000000" stroke-width="1.0" stroke-linejoin="round" stroke-linecap="butt" d="m161.60104 219.29396l0 31.868774l0 9.889755l183.95538 0l0 -119.779526l-3.0761108 0l2.979004 0.79789734" fill-rule="evenodd"/><path fill="#cccccc" d="m354.2698 92.24147l0 40.255066l-14.833099 14.833099l0 -69.921265z" fill-rule="evenodd"/><path stroke="#000000" stroke-width="1.0" stroke-linejoin="round" stroke-linecap="butt" d="m354.2698 92.24147l0 40.255066l-14.833099 14.833099l0 -69.921265z" fill-rule="evenodd"/><path fill="#cccccc" d="m295.24573 204.5918l0 0c-0.7640991 -5.880142 1.7445679 -11.701126 6.461487 -14.992889c4.7168884 -3.2917633 10.814819 -3.477005 15.706146 -0.47712708l0 0c1.732666 -3.4189606 4.9039307 -5.7795105 8.554565 -6.3676453c3.6506348 -0.5881195 7.3518677 0.6652527 9.984131 3.3809967l0 0c1.4759827 -3.0998383 4.3741455 -5.182541 7.666046 -5.5090485c3.2919006 -0.3264923 6.5116577 1.1493988 8.516724 3.9039764l0 0c2.666626 -3.2858276 6.9092712 -4.6692963 10.892151 -3.551773c3.9828491 1.1175232 6.9906006 4.535324 7.72171 8.77449l0 0c3.2670593 0.933197 5.9884644 3.305481 7.4610596 6.503952c1.4725952 3.198471 1.5519714 6.9093475 0.21755981 10.173874l0 0c3.217102 4.384613 3.9696655 10.227051 1.9768372 15.347031c-1.9927979 5.11998 -6.43161 8.748276 -11.659912 9.530869c-0.036865234 4.8052826 -2.5534973 9.214554 -6.579895 11.52829c-4.026367 2.3137207 -8.933807 2.1706238 -12.830719 -0.37416077l0 0c-1.6598816 5.7551575 -6.3318787 9.989746 -11.997528 10.874268c-5.665619 0.8845215 -11.309235 -1.7395935 -14.492584 -6.738617l0 0c-3.9020996 2.464035 -8.58429 3.1738434 -12.990356 1.9693146c-4.4060974 -1.2045288 -8.164917 -4.2219543 -10.428558 -8.371582l0 0c-3.9874573 0.4886322 -7.8427734 -1.6747589 -9.652588 -5.4164734c-1.8097839 -3.7416992 -1.1888123 -8.265228 1.5547485 -11.325562l0 0c-3.5568848 -2.1922607 -5.3718567 -6.542465 -4.498413 -10.78212c0.8734436 -4.23967 4.237335 -7.408066 8.337555 -7.853012z" fill-rule="evenodd"/><path fill="#000000" fill-opacity="0.0" d="m291.32776 223.45357l0 0c1.6785278 1.0345459 3.6176147 1.50383 5.5569153 1.3448639m2.540039 15.397537c0.8339844 -0.10220337 1.6514282 -0.31860352 2.4312744 -0.6436615m20.98648 7.0456543c-0.58654785 -0.92111206 -1.0776367 -1.9054108 -1.4649048 -2.9361115m27.956055 -1.199707l0 0c0.3026123 -1.0492401 0.49868774 -2.1291504 0.5849304 -3.221695m18.82492 -7.932022c0.039245605 -5.115967 -2.7355957 -9.800201 -7.1326294 -12.04068m16.815643 -12.836685c-0.71209717 1.7420807 -1.7991638 3.2874603 -3.1760254 4.514969m-4.501953 -21.193253l0 0c0.12133789 0.7034912 0.17749023 1.4175568 0.16769409 2.132309m-18.78122 -7.3548126l0 0c-0.66519165 0.8196564 -1.2132263 1.7355957 -1.6270447 2.7193298m-14.555908 -1.1146088l0 0c-0.3544922 0.7444763 -0.61920166 1.5322723 -0.7880249 2.34523m-17.750946 0.64146423l0 0c1.0350037 0.6347809 1.9925232 1.3987885 2.851532 2.2752686m-25.01886 13.1948395l0 0c0.10531616 0.8104248 0.271698 1.6108704 0.49761963 2.3938293" fill-rule="evenodd"/><path stroke="#000000" stroke-width="1.0" stroke-linejoin="round" stroke-linecap="butt" d="m295.24573 204.5918l0 0c-0.7640991 -5.880142 1.7445679 -11.701126 6.461487 -14.992889c4.7168884 -3.2917633 10.814819 -3.477005 15.706146 -0.47712708l0 0c1.732666 -3.4189606 4.9039307 -5.7795105 8.554565 -6.3676453c3.6506348 -0.5881195 7.3518677 0.6652527 9.984131 3.3809967l0 0c1.4759827 -3.0998383 4.3741455 -5.182541 7.666046 -5.5090485c3.2919006 -0.3264923 6.5116577 1.1493988 8.516724 3.9039764l0 0c2.666626 -3.2858276 6.9092712 -4.6692963 10.892151 -3.551773c3.9828491 1.1175232 6.9906006 4.535324 7.72171 8.77449l0 0c3.2670593 0.933197 5.9884644 3.305481 7.4610596 6.503952c1.4725952 3.198471 1.5519714 6.9093475 0.21755981 10.173874l0 0c3.217102 4.384613 3.9696655 10.227051 1.9768372 15.347031c-1.9927979 5.11998 -6.43161 8.748276 -11.659912 9.530869c-0.036865234 4.8052826 -2.5534973 9.214554 -6.579895 11.52829c-4.026367 2.3137207 -8.933807 2.1706238 -12.830719 -0.37416077l0 0c-1.6598816 5.7551575 -6.3318787 9.989746 -11.997528 10.874268c-5.665619 0.8845215 -11.309235 -1.7395935 -14.492584 -6.738617l0 0c-3.9020996 2.464035 -8.58429 3.1738434 -12.990356 1.9693146c-4.4060974 -1.2045288 -8.164917 -4.2219543 -10.428558 -8.371582l0 0c-3.9874573 0.4886322 -7.8427734 -1.6747589 -9.652588 -5.4164734c-1.8097839 -3.7416992 -1.1888123 -8.265228 1.5547485 -11.325562l0 0c-3.5568848 -2.1922607 -5.3718567 -6.542465 -4.498413 -10.78212c0.8734436 -4.23967 4.237335 -7.408066 8.337555 -7.853012z" fill-rule="evenodd"/><path stroke="#000000" stroke-width="1.0" stroke-linejoin="round" stroke-linecap="butt" d="m291.32776 223.45357l0 0c1.6785278 1.0345459 3.6176147 1.50383 5.5569153 1.3448639m2.540039 15.397537c0.8339844 -0.10220337 1.6514282 -0.31860352 2.4312744 -0.6436615m20.98648 7.0456543c-0.58654785 -0.92111206 -1.0776367 -1.9054108 -1.4649048 -2.9361115m27.956055 -1.199707l0 0c0.3026123 -1.0492401 0.49868774 -2.1291504 0.5849304 -3.221695m18.82492 -7.932022c0.039245605 -5.115967 -2.7355957 -9.800201 -7.1326294 -12.04068m16.815643 -12.836685c-0.71209717 1.7420807 -1.7991638 3.2874603 -3.1760254 4.514969m-4.501953 -21.193253l0 0c0.12133789 0.7034912 0.17749023 1.4175568 0.16769409 2.132309m-18.78122 -7.3548126l0 0c-0.66519165 0.8196564 -1.2132263 1.7355957 -1.6270447 2.7193298m-14.555908 -1.1146088l0 0c-0.3544922 0.7444763 -0.61920166 1.5322723 -0.7880249 2.34523m-17.750946 0.64146423l0 0c1.0350037 0.6347809 1.9925232 1.3987885 2.851532 2.2752686m-25.01886 13.1948395l0 0c0.10531616 0.8104248 0.271698 1.6108704 0.49761963 2.3938293" fill-rule="evenodd"/><path fill="#000000" d="m159.47769 218.91602l0 0c0 -1.0697784 0.8672333 -1.9370117 1.9370117 -1.9370117l0 0c0.51371765 0 1.0064087 0.20407104 1.3696594 0.56733704c0.363266 0.36325073 0.56733704 0.8559418 0.56733704 1.3696747l0 0c0 1.0697784 -0.867218 1.9369965 -1.9369965 1.9369965l0 0c-1.0697784 0 -1.9370117 -0.867218 -1.9370117 -1.9369965z" fill-rule="evenodd"/><path stroke="#000000" stroke-width="1.0" stroke-linejoin="round" stroke-linecap="butt" d="m159.47769 218.91602l0 0c0 -1.0697784 0.8672333 -1.9370117 1.9370117 -1.9370117l0 0c0.51371765 0 1.0064087 0.20407104 1.3696594 0.56733704c0.363266 0.36325073 0.56733704 0.8559418 0.56733704 1.3696747l0 0c0 1.0697784 -0.867218 1.9369965 -1.9369965 1.9369965l0 0c-1.0697784 0 -1.9370117 -0.867218 -1.9370117 -1.9369965z" fill-rule="evenodd"/></g></svg>